<svg width="16" height="16" viewBox="0 0 16 16" fill="none" xmlns="http://www.w3.org/2000/svg">
<g id="Group 3692">
<g id="Group">
<path id="Vector" d="M0.0104276 10.4317C-0.056919 10.7348 0.212467 11.0042 0.515527 10.9369L3.04102 10.3728C3.79025 10.7516 4.61525 10.9453 5.47392 10.9453C5.70963 10.9453 5.89483 10.7601 5.89483 10.5243C5.89483 10.2886 5.70963 10.1033 5.47392 10.1033C4.69943 10.1033 3.95862 9.91812 3.29357 9.55608C3.20097 9.50556 3.09995 9.49714 3.00735 9.51398L0.978535 9.96021L1.43312 7.93113C1.44996 7.84693 1.43312 7.73748 1.39103 7.65328C1.02904 6.98815 0.843841 6.24724 0.843841 5.47265C0.843841 2.91313 2.91475 0.841945 5.47392 0.841945C8.03309 0.841945 10.104 2.91313 10.104 5.47265C10.104 5.70839 10.2892 5.89362 10.5249 5.89362C10.7606 5.89362 10.9458 5.70839 10.9458 5.47265C10.9458 2.45006 8.4961 0 5.47392 0C2.45174 0 0.00200924 2.45006 0.00200924 5.47265C0.00200924 6.33143 0.195631 7.15654 0.574455 7.90587L0.0104276 10.4317Z" fill="#838282"/>
<path id="Vector_2" d="M15.9901 15.4825C16.0574 15.7856 15.788 16.0551 15.485 15.9877L12.9595 15.4236C12.2103 15.8025 11.3853 15.9961 10.5266 15.9961C7.50442 15.9961 5.05469 13.5461 5.05469 10.5235C5.05469 7.5009 7.50442 5.05084 10.5266 5.05084C13.5488 5.05084 15.9985 7.5009 15.9985 10.5235C15.9985 11.3823 15.8049 12.2074 15.4261 12.9567L15.9901 15.4825ZM14.5758 12.9904C14.5506 12.8894 14.5674 12.7883 14.6179 12.7041C14.9715 12.039 15.1567 11.2981 15.1567 10.5235C15.1567 7.96397 13.0858 5.89279 10.5266 5.89279C7.96743 5.89279 5.89652 7.96397 5.89652 10.5235C5.89652 13.083 7.96743 15.1542 10.5266 15.1542C11.3011 15.1542 12.0419 14.969 12.7069 14.6069C12.7995 14.5564 12.9006 14.548 12.9932 14.5648L15.022 15.0111L14.5758 12.9904Z" fill="#838282"/>
</g>
</g>
</svg>
