<svg width="31" height="31" viewBox="0 0 31 31" fill="none" xmlns="http://www.w3.org/2000/svg">
<circle cx="15.5" cy="15.5" r="15.5" fill="#D4C1B9"/>
<circle cx="13.75" cy="11.5" r="3" stroke="#0F0F0F" stroke-width="1.5"/>
<path d="M18.25 13.75C19.4926 13.75 20.5 12.7426 20.5 11.5C20.5 10.2574 19.4926 9.25 18.25 9.25" stroke="#0F0F0F" stroke-width="1.5" stroke-linecap="round"/>
<path d="M11.4169 22.4382C12.1197 22.6378 12.9119 22.75 13.75 22.75C16.6495 22.75 19 21.4069 19 19.75C19 18.0931 16.6495 16.75 13.75 16.75C10.8505 16.75 8.5 18.0931 8.5 19.75C8.5 20.009 8.55743 20.2603 8.6654 20.5" stroke="#0F0F0F" stroke-width="1.5" stroke-linecap="round"/>
<path d="M20.5 17.5C21.8157 17.7885 22.75 18.5192 22.75 19.375C22.75 20.147 21.9897 20.8172 20.875 21.1528" stroke="#0F0F0F" stroke-width="1.5" stroke-linecap="round"/>
</svg>
