<svg width="16" height="16" viewBox="0 0 16 16" fill="none" xmlns="http://www.w3.org/2000/svg">
<g id="icon">
<path id="Vector" d="M7.99935 2.6665C6.94452 2.6665 5.91337 2.9793 5.03631 3.56533C4.15925 4.15137 3.47566 4.98432 3.07199 5.95886C2.66833 6.9334 2.56271 8.00575 2.7685 9.04032C2.97428 10.0749 3.48224 11.0252 4.22812 11.7711C4.974 12.517 5.9243 13.0249 6.95887 13.2307C7.99343 13.4365 9.06579 13.3309 10.0403 12.9272C11.0149 12.5235 11.8478 11.8399 12.4339 10.9629C13.0199 10.0858 13.3327 9.05467 13.3327 7.99984C13.3327 6.58535 12.7708 5.2288 11.7706 4.2286C10.7704 3.22841 9.41384 2.6665 7.99935 2.6665ZM7.99935 12.4443C7.12032 12.4443 6.26104 12.1836 5.53015 11.6953C4.79927 11.2069 4.22961 10.5128 3.89322 9.70065C3.55683 8.88854 3.46882 7.99491 3.64031 7.13277C3.8118 6.27063 4.23509 5.47871 4.85665 4.85714C5.47822 4.23557 6.27015 3.81228 7.13228 3.64079C7.99442 3.4693 8.88805 3.55732 9.70017 3.89371C10.5123 4.2301 11.2064 4.79975 11.6948 5.53064C12.1831 6.26152 12.4438 7.12081 12.4438 7.99984C12.4438 8.58349 12.3288 9.16143 12.1055 9.70065C11.8821 10.2399 11.5548 10.7298 11.142 11.1425C10.7293 11.5552 10.2394 11.8826 9.70017 12.106C9.16094 12.3293 8.583 12.4443 7.99935 12.4443Z" fill="#212121"/>
<path id="Vector_2" d="M7.99965 8.92037C7.84642 8.92037 7.69946 8.85949 7.5911 8.75114C7.48275 8.64279 7.42188 8.49583 7.42188 8.34259V5.67592C7.42188 5.52269 7.48275 5.37573 7.5911 5.26737C7.69946 5.15902 7.84642 5.09814 7.99965 5.09814C8.15289 5.09814 8.29985 5.15902 8.4082 5.26737C8.51656 5.37573 8.57743 5.52269 8.57743 5.67592V8.34259C8.57743 8.49583 8.51656 8.64279 8.4082 8.75114C8.29985 8.85949 8.15289 8.92037 7.99965 8.92037Z" fill="#212121"/>
<path id="Vector_3" d="M7.97721 10.8978C8.3454 10.8978 8.64388 10.5993 8.64388 10.2311C8.64388 9.86293 8.3454 9.56445 7.97721 9.56445C7.60902 9.56445 7.31055 9.86293 7.31055 10.2311C7.31055 10.5993 7.60902 10.8978 7.97721 10.8978Z" fill="#212121"/>
</g>
</svg>
