<svg width="22" height="21" viewBox="0 0 22 21" fill="none" xmlns="http://www.w3.org/2000/svg">
<g id="carbon:view">
<path id="Vector" d="M20.8041 10.2769C20.0322 8.28033 18.6923 6.55372 16.9498 5.31043C15.2073 4.06715 13.1388 3.36169 10.9997 3.28125C8.86068 3.36169 6.7921 4.06715 5.04963 5.31043C3.30717 6.55372 1.9672 8.28033 1.19535 10.2769C1.14322 10.4211 1.14322 10.5789 1.19535 10.7231C1.9672 12.7197 3.30717 14.4463 5.04963 15.6896C6.7921 16.9329 8.86068 17.6383 10.9997 17.7188C13.1388 17.6383 15.2073 16.9329 16.9498 15.6896C18.6923 14.4463 20.0322 12.7197 20.8041 10.7231C20.8562 10.5789 20.8562 10.4211 20.8041 10.2769ZM10.9997 16.4062C7.5216 16.4062 3.8466 13.8272 2.51441 10.5C3.8466 7.17281 7.5216 4.59375 10.9997 4.59375C14.4778 4.59375 18.1528 7.17281 19.485 10.5C18.1528 13.8272 14.4778 16.4062 10.9997 16.4062Z" fill="#838282"/>
<path id="Vector_2" d="M11 6.5625C10.2212 6.5625 9.45996 6.79343 8.81244 7.22609C8.16492 7.65875 7.66025 8.2737 7.36223 8.99318C7.06421 9.71267 6.98623 10.5044 7.13816 11.2682C7.29009 12.032 7.6651 12.7336 8.21577 13.2842C8.76644 13.8349 9.46803 14.2099 10.2318 14.3618C10.9956 14.5138 11.7873 14.4358 12.5068 14.1378C13.2263 13.8398 13.8413 13.3351 14.2739 12.6876C14.7066 12.04 14.9375 11.2788 14.9375 10.5C14.9375 9.45571 14.5227 8.45419 13.7842 7.71577C13.0458 6.97734 12.0443 6.5625 11 6.5625ZM11 13.125C10.4808 13.125 9.97331 12.971 9.54163 12.6826C9.10995 12.3942 8.7735 11.9842 8.57482 11.5045C8.37614 11.0249 8.32415 10.4971 8.42544 9.98789C8.52673 9.47869 8.77673 9.01096 9.14385 8.64384C9.51096 8.27673 9.97869 8.02672 10.4879 7.92544C10.9971 7.82415 11.5249 7.87614 12.0045 8.07482C12.4842 8.2735 12.8942 8.60995 13.1826 9.04163C13.471 9.47331 13.625 9.98082 13.625 10.5C13.625 11.1962 13.3484 11.8639 12.8562 12.3562C12.3639 12.8484 11.6962 13.125 11 13.125Z" fill="#838282"/>
</g>
</svg>
