<svg width="15" height="15" viewBox="0 0 15 15" fill="none" xmlns="http://www.w3.org/2000/svg">
<g clip-path="url(#clip0_12534_24471)">
<path d="M2.98091 5.23526C3.67259 5.23526 4.23331 4.67454 4.23331 3.98286C4.23331 3.29119 3.67259 2.73047 2.98091 2.73047C2.28923 2.73047 1.72852 3.29119 1.72852 3.98286C1.72852 4.67454 2.28923 5.23526 2.98091 5.23526Z" stroke="#A6A6A6" stroke-width="1.00286" stroke-linecap="round" stroke-linejoin="round"/>
<path d="M4.23438 3.98438H12.5837" stroke="#A6A6A6" stroke-width="1.00286" stroke-linecap="round" stroke-linejoin="round"/>
<path d="M7.15669 9.41104C7.84837 9.41104 8.40909 8.85033 8.40909 8.15865C8.40909 7.46697 7.84837 6.90625 7.15669 6.90625C6.46501 6.90625 5.9043 7.46697 5.9043 8.15865C5.9043 8.85033 6.46501 9.41104 7.15669 9.41104Z" stroke="#A6A6A6" stroke-width="1.00286" stroke-linecap="round" stroke-linejoin="round"/>
<path d="M1.72852 8.16016H5.90317M8.40796 8.16016H12.5826" stroke="#A6A6A6" stroke-width="1.00286" stroke-linecap="round" stroke-linejoin="round"/>
<path d="M11.3305 13.5868C12.0222 13.5868 12.5829 13.0261 12.5829 12.3344C12.5829 11.6427 12.0222 11.082 11.3305 11.082C10.6388 11.082 10.0781 11.6427 10.0781 12.3344C10.0781 13.0261 10.6388 13.5868 11.3305 13.5868Z" stroke="#A6A6A6" stroke-width="1.00286" stroke-linecap="round" stroke-linejoin="round"/>
<path d="M10.0778 12.332H1.72852" stroke="#A6A6A6" stroke-width="1.00286" stroke-linecap="round" stroke-linejoin="round"/>
</g>
<defs>
<clipPath id="clip0_12534_24471">
<rect width="13.9135" height="13.9135" fill="white" transform="translate(0.107422 0.296875)"/>
</clipPath>
</defs>
</svg>
