<svg width="15" height="14" viewBox="0 0 15 14" fill="none" xmlns="http://www.w3.org/2000/svg">
<path id="Vector" d="M6.82379 12.1971L6.82308 12.1965C5.01084 10.5333 3.54662 9.18665 2.52961 7.9274C1.51827 6.67517 1 5.56945 1 4.39646C1 2.47843 2.47519 1 4.35 1C5.41461 1 6.44637 1.50419 7.11866 2.29696L7.5 2.74663L7.88134 2.29696C8.55363 1.50419 9.58539 1 10.65 1C12.5248 1 14 2.47843 14 4.39646C14 5.56945 13.4817 6.67517 12.4704 7.9274C11.4534 9.18665 9.98916 10.5333 8.17692 12.1965L8.17621 12.1971L7.5 12.8201L6.82379 12.1971Z" fill="#FA7777" fill-opacity="0.2" stroke="white"/>
</svg>
