<svg width="16" height="18" viewBox="0 0 16 18" fill="none" xmlns="http://www.w3.org/2000/svg">
<g id="settings-1" clip-path="url(#clip0_14211_10608)">
<path id="Vector" d="M6.81342 8.9442C6.8061 9.16569 6.84246 9.38645 6.92045 9.59388C6.99844 9.80131 7.11652 9.99134 7.26796 10.1531C7.41939 10.3149 7.6012 10.4453 7.80303 10.5368C8.00485 10.6284 8.22272 10.6793 8.4442 10.6866C8.66569 10.6939 8.88645 10.6575 9.09388 10.5795C9.30131 10.5016 9.49134 10.3835 9.65314 10.232C9.81493 10.0806 9.94531 9.8988 10.0368 9.69697C10.1284 9.49515 10.1793 9.27728 10.1866 9.0558C10.1939 8.83431 10.1575 8.61355 10.0795 8.40612C10.0016 8.19869 9.88348 8.00866 9.73204 7.84686C9.58061 7.68507 9.39879 7.55469 9.19697 7.46316C8.99515 7.37163 8.77728 7.32075 8.5558 7.31342C8.33431 7.3061 8.11355 7.34246 7.90612 7.42045C7.69869 7.49844 7.50866 7.61652 7.34686 7.76796C7.18507 7.91939 7.05469 8.10121 6.96316 8.30303C6.87163 8.50485 6.82075 8.72272 6.81342 8.9442Z" stroke="#838282" stroke-linecap="round" stroke-linejoin="round"/>
<path id="Vector_2" d="M7.46577 1.4686C8.10173 1.08437 8.89827 1.08437 9.53423 1.4686L14.2842 4.33839C14.8837 4.70055 15.25 5.34988 15.25 6.05022V11.9498C15.25 12.6501 14.8837 13.2995 14.2842 13.6616L9.53423 16.5314C8.89827 16.9156 8.10173 16.9156 7.46577 16.5314L2.71577 13.6616C2.11633 13.2995 1.75 12.6501 1.75 11.9498V6.05022C1.75 5.34988 2.11633 4.70055 2.71577 4.33839L7.46577 1.4686Z" stroke="#838282" stroke-linejoin="round"/>
</g>
<defs>
<clipPath id="clip0_14211_10608">
<rect width="16" height="17" fill="white" transform="translate(0 0.5)"/>
</clipPath>
</defs>
</svg>
