<svg width="19" height="19" viewBox="0 0 19 19" fill="none" xmlns="http://www.w3.org/2000/svg">
<g id="Broken / Users / Users Group Rounded">
<ellipse id="Vector" cx="7.12565" cy="4.75016" rx="3.16667" ry="3.16667" stroke="#0F0F0F"/>
<path id="Vector_2" d="M11.875 7.125C13.1867 7.125 14.25 6.06168 14.25 4.75C14.25 3.43832 13.1867 2.375 11.875 2.375" stroke="#0F0F0F" stroke-linecap="round"/>
<path id="Vector_3" d="M4.66289 16.2957C5.40478 16.5064 6.24101 16.6248 7.12565 16.6248C10.1862 16.6248 12.6673 15.2071 12.6673 13.4582C12.6673 11.7093 10.1862 10.2915 7.12565 10.2915C4.06507 10.2915 1.58398 11.7093 1.58398 13.4582C1.58398 13.7315 1.6446 13.9968 1.75857 14.2498" stroke="#0F0F0F" stroke-linecap="round"/>
<path id="Vector_4" d="M14.25 11.0835C15.6388 11.388 16.625 12.1593 16.625 13.0627C16.625 13.8776 15.8225 14.585 14.6458 14.9393" stroke="#0F0F0F" stroke-linecap="round"/>
</g>
</svg>
