<svg width="15" height="15" viewBox="0 0 15 15" fill="none" xmlns="http://www.w3.org/2000/svg">
<g id="mingcute:information-line" clip-path="url(#clip0_12534_25080)">
<g id="Group">
<path id="Vector" d="M7.5 1.25C10.9519 1.25 13.75 4.04813 13.75 7.5C13.75 10.9519 10.9519 13.75 7.5 13.75C4.04813 13.75 1.25 10.9519 1.25 7.5C1.25 4.04813 4.04813 1.25 7.5 1.25ZM7.5 2.5C6.17392 2.5 4.90215 3.02678 3.96447 3.96447C3.02678 4.90215 2.5 6.17392 2.5 7.5C2.5 8.82608 3.02678 10.0979 3.96447 11.0355C4.90215 11.9732 6.17392 12.5 7.5 12.5C8.82608 12.5 10.0979 11.9732 11.0355 11.0355C11.9732 10.0979 12.5 8.82608 12.5 7.5C12.5 6.17392 11.9732 4.90215 11.0355 3.96447C10.0979 3.02678 8.82608 2.5 7.5 2.5ZM7.49375 6.25C7.8425 6.25 8.125 6.5325 8.125 6.88125V10.0838C8.24414 10.1525 8.33726 10.2587 8.3899 10.3858C8.44255 10.5129 8.45178 10.6539 8.41618 10.7868C8.38057 10.9197 8.3021 11.0371 8.19296 11.1208C8.08381 11.2046 7.95008 11.25 7.8125 11.25H7.50625C7.42335 11.25 7.34127 11.2337 7.26468 11.2019C7.18809 11.1702 7.11851 11.1237 7.05989 11.0651C7.00127 11.0065 6.95477 10.9369 6.92305 10.8603C6.89133 10.7837 6.875 10.7016 6.875 10.6187V7.5C6.70924 7.5 6.55027 7.43415 6.43306 7.31694C6.31585 7.19973 6.25 7.04076 6.25 6.875C6.25 6.70924 6.31585 6.55027 6.43306 6.43306C6.55027 6.31585 6.70924 6.25 6.875 6.25H7.49375ZM7.5 4.375C7.66576 4.375 7.82473 4.44085 7.94194 4.55806C8.05915 4.67527 8.125 4.83424 8.125 5C8.125 5.16576 8.05915 5.32473 7.94194 5.44194C7.82473 5.55915 7.66576 5.625 7.5 5.625C7.33424 5.625 7.17527 5.55915 7.05806 5.44194C6.94085 5.32473 6.875 5.16576 6.875 5C6.875 4.83424 6.94085 4.67527 7.05806 4.55806C7.17527 4.44085 7.33424 4.375 7.5 4.375Z" fill="black"/>
</g>
</g>
<defs>
<clipPath id="clip0_12534_25080">
<rect width="15" height="15" fill="white"/>
</clipPath>
</defs>
</svg>
