<svg width="13" height="13" viewBox="0 0 13 13" fill="none" xmlns="http://www.w3.org/2000/svg">
<path id="Path 2330" fill-rule="evenodd" clip-rule="evenodd" d="M6.17686 0.148438C5.70077 0.148438 5.31482 0.534387 5.31482 1.01048V5.32068H1.00462C0.528526 5.32068 0.142578 5.70663 0.142578 6.18272C0.142578 6.65881 0.528527 7.04476 1.00462 7.04476H5.31482V11.355C5.31482 11.831 5.70077 12.217 6.17686 12.217C6.65295 12.217 7.0389 11.831 7.0389 11.355V7.04476H11.3491C11.8252 7.04476 12.2111 6.65881 12.2111 6.18272C12.2111 5.70663 11.8252 5.32068 11.3491 5.32068H7.0389V1.01048C7.0389 0.534387 6.65295 0.148438 6.17686 0.148438Z" fill="white"/>
</svg>
