<svg width="26" height="26" viewBox="0 0 26 26" fill="none" xmlns="http://www.w3.org/2000/svg">
<g id="user">
<path id="Vector" d="M10.5638 9.66941C10.5532 9.98933 10.6058 10.3082 10.7184 10.6078C10.8311 10.9074 11.0016 11.1819 11.2204 11.4156C11.4391 11.6493 11.7017 11.8377 11.9933 11.9699C12.2848 12.1021 12.5995 12.1756 12.9194 12.1862C13.2393 12.1968 13.5582 12.1442 13.8578 12.0316C14.1574 11.9189 14.4319 11.7484 14.6656 11.5296C14.8993 11.3109 15.0877 11.0483 15.2199 10.7567C15.3521 10.4652 15.4256 10.1505 15.4362 9.83059C15.4468 9.51067 15.3942 9.1918 15.2816 8.89218C15.1689 8.59256 14.9984 8.31806 14.7796 8.08436C14.5609 7.85066 14.2983 7.66232 14.0067 7.53012C13.7152 7.39791 13.4005 7.32442 13.0806 7.31383C12.7607 7.30325 12.4418 7.35578 12.1422 7.46843C11.8426 7.58108 11.5681 7.75165 11.3344 7.97038C11.1007 8.18912 10.9123 8.45174 10.7801 8.74326C10.6479 9.03478 10.5744 9.34948 10.5638 9.66941Z" stroke="#0F0F0F" stroke-width="1.5" stroke-linecap="round" stroke-linejoin="round"/>
<path id="Vector_2" d="M17.875 18.6875C17.4756 17.7255 16.7993 16.9033 15.9316 16.3248C15.0638 15.7463 14.0436 15.4375 13 15.4375C11.9564 15.4375 10.9362 15.7463 10.0684 16.3248C9.2007 16.9033 8.52438 17.7255 8.125 18.6875" stroke="#0F0F0F" stroke-width="1.5" stroke-linecap="round" stroke-linejoin="round"/>
</g>
</svg>
