<svg width="18" height="18" viewBox="0 0 18 18" fill="none" xmlns="http://www.w3.org/2000/svg">
<path d="M15.3109 8.625C15.3109 12.3175 12.3175 15.3109 8.625 15.3109C4.93249 15.3109 1.93911 12.3175 1.93911 8.625C1.93911 4.93249 4.93249 1.93911 8.625 1.93911C12.3175 1.93911 15.3109 4.93249 15.3109 8.625Z" stroke="#A4A2A2" stroke-width="0.87822"/>
<path d="M15.9749 16.498C15.8399 16.498 15.7049 16.4455 15.6074 16.348L14.2124 14.953C14.0099 14.7505 14.0099 14.4205 14.2124 14.2105C14.4149 14.008 14.7449 14.008 14.9549 14.2105L16.3499 15.6055C16.5524 15.808 16.5524 16.138 16.3499 16.348C16.2449 16.4455 16.1099 16.498 15.9749 16.498Z" fill="#A4A2A2"/>
</svg>
