<svg width="27" height="27" viewBox="0 0 27 27" fill="none" xmlns="http://www.w3.org/2000/svg">
<g id="settings-2">
<path id="Vector" d="M15.5296 6.14062C16.2162 7.32988 17.4851 8.0625 18.8584 8.0625C20.6626 8.0625 21.7903 10.0157 20.8881 11.5782C20.2015 12.7674 20.2015 14.2326 20.8881 15.4219C21.7902 16.9844 20.6626 18.9375 18.8584 18.9375C17.4852 18.9375 16.2163 19.6701 15.5296 20.8594C14.6275 22.4219 12.3723 22.4219 11.4701 20.8594C10.7835 19.6701 9.51459 18.9375 8.14135 18.9375C6.33712 18.9375 5.20947 16.9843 6.11159 15.4218C6.7982 14.2326 6.79821 12.7673 6.11159 11.5781C5.20949 10.0156 6.33712 8.0625 8.14132 8.0625C9.51455 8.0625 10.7835 7.32988 11.4701 6.14063C12.3722 4.57813 14.6275 4.57812 15.5296 6.14062Z" stroke="#0F0F0F" stroke-width="1.5"/>
<path id="Vector_2" d="M11.8134 13.4442C11.8061 13.6657 11.8425 13.8864 11.9205 14.0939C11.9984 14.3013 12.1165 14.4913 12.268 14.6531C12.4194 14.8149 12.6012 14.9453 12.803 15.0368C13.0048 15.1284 13.2227 15.1793 13.4442 15.1866C13.6657 15.1939 13.8864 15.1575 14.0939 15.0795C14.3013 15.0016 14.4913 14.8835 14.6531 14.732C14.8149 14.5806 14.9453 14.3988 15.0368 14.197C15.1284 13.9952 15.1793 13.7773 15.1866 13.5558C15.1939 13.3343 15.1575 13.1136 15.0795 12.9061C15.0016 12.6987 14.8835 12.5087 14.732 12.3469C14.5806 12.1851 14.3988 12.0547 14.197 11.9632C13.9952 11.8716 13.7773 11.8207 13.5558 11.8134C13.3343 11.8061 13.1136 11.8425 12.9061 11.9205C12.6987 11.9984 12.5087 12.1165 12.3469 12.268C12.1851 12.4194 12.0547 12.6012 11.9632 12.803C11.8716 13.0048 11.8207 13.2227 11.8134 13.4442Z" stroke="#0F0F0F" stroke-width="1.5" stroke-linecap="round" stroke-linejoin="round"/>
</g>
</svg>
