<svg width="16" height="16" viewBox="0 0 16 16" fill="none" xmlns="http://www.w3.org/2000/svg">
<g id="Bold Duotone / Settings, Fine Tuning / Settings">
<path id="Vector" d="M9.51921 1.43481L9.70931 0.972357V0.972357L9.51921 1.43481ZM7.14746 1.43481L7.33757 1.89726L7.14746 1.43481ZM6.42037 2.1564L6.88179 2.34899V2.34898L6.42037 2.1564ZM6.32423 2.73197L5.82459 2.71315L6.32423 2.73197ZM5.79344 3.63393L5.54487 3.2001L5.54487 3.2001L5.79344 3.63393ZM4.74099 3.63915L4.97325 3.19637L4.97325 3.19637L4.74099 3.63915ZM4.19066 3.43399L4.12588 3.92978H4.12588L4.19066 3.43399ZM3.19744 3.69811L3.50036 4.0959H3.50036L3.19744 3.69811ZM2.51594 4.6666L2.94812 4.91802L2.51594 4.6666ZM2.01156 5.73658L1.51591 5.67083H1.51591L2.01156 5.73658ZM2.2777 6.7223L1.88214 7.02813H1.88214L2.2777 6.7223ZM2.7318 7.09266L2.99637 6.6684L2.99637 6.66839L2.7318 7.09266ZM3.25353 8L2.75353 7.99997L3.25353 8ZM2.7318 8.90721L2.99636 9.33148H2.99636L2.7318 8.90721ZM2.27763 9.27761L1.88207 8.97178H1.88207L2.27763 9.27761ZM2.0115 10.2633L1.51584 10.3291L2.0115 10.2633ZM2.51587 11.3333L2.08368 11.5847H2.08368L2.51587 11.3333ZM3.19737 12.3018L3.5003 11.904L3.19737 12.3018ZM4.19059 12.5659L4.25537 13.0617H4.25537L4.19059 12.5659ZM4.74089 12.3608L4.97314 12.8036H4.97314L4.74089 12.3608ZM5.79341 12.366L6.04199 11.9322L6.04199 11.9322L5.79341 12.366ZM6.32424 13.268L5.82459 13.2869L6.32424 13.268ZM6.42037 13.8436L5.95895 14.0361L5.95895 14.0361L6.42037 13.8436ZM7.14746 14.5652L7.33757 14.1027H7.33757L7.14746 14.5652ZM9.51921 14.5652L9.70931 15.0276H9.70931L9.51921 14.5652ZM10.2463 13.8436L9.78487 13.651H9.78487L10.2463 13.8436ZM10.3424 13.268L10.8421 13.2868V13.2868L10.3424 13.268ZM10.8732 12.366L11.1218 12.7998H11.1218L10.8732 12.366ZM11.9257 12.3607L11.6935 12.8035H11.6935L11.9257 12.3607ZM12.476 12.5659L12.4112 13.0617L12.476 12.5659ZM13.4692 12.3018L13.7722 12.6995L13.4692 12.3018ZM14.6551 10.2633L14.1594 10.1975V10.1975L14.6551 10.2633ZM14.389 9.27757L14.7845 8.97174L14.7845 8.97173L14.389 9.27757ZM13.9348 8.90718L14.1994 8.48291L14.1994 8.48291L13.9348 8.90718ZM13.4131 7.99992L13.9131 7.99995V7.99995L13.4131 7.99992ZM13.9348 7.09277L14.1994 7.51705L13.9348 7.09277ZM14.389 6.72235L13.9935 6.41651L14.389 6.72235ZM14.6552 5.73663L14.1595 5.80238V5.80238L14.6552 5.73663ZM13.4693 3.69816L13.7722 3.30037V3.30037L13.4693 3.69816ZM12.4761 3.43404L12.4113 2.93825L12.4761 3.43404ZM11.9258 3.63918L12.158 4.08196V4.08196L11.9258 3.63918ZM10.8733 3.63395L11.1218 3.20012V3.20012L10.8733 3.63395ZM10.3424 2.73194L10.8421 2.71311V2.71311L10.3424 2.73194ZM10.2463 2.1564L10.7077 1.96382L10.7077 1.96382L10.2463 2.1564ZM9.70931 0.972357C9.51515 0.89254 9.31479 0.861537 9.10221 0.847142C8.89404 0.833046 8.63954 0.833313 8.33333 0.833313V1.83331C8.65312 1.83331 8.8681 1.83358 9.03465 1.84486C9.19678 1.85584 9.27637 1.87558 9.3291 1.89726L9.70931 0.972357ZM8.33333 0.833313C8.02713 0.833313 7.77263 0.833046 7.56446 0.847142C7.35187 0.861537 7.15152 0.89254 6.95736 0.972357L7.33757 1.89726C7.3903 1.87558 7.46989 1.85584 7.63202 1.84486C7.79857 1.83358 8.01355 1.83331 8.33333 1.83331V0.833313ZM6.95736 0.972357C6.50626 1.1578 6.14669 1.514 5.95895 1.96382L6.88179 2.34898C6.96677 2.14539 7.13028 1.98247 7.33757 1.89726L6.95736 0.972357ZM5.95895 1.96382C5.86115 2.19813 5.83469 2.44508 5.82459 2.71315L6.82388 2.7508C6.83284 2.51288 6.8551 2.41295 6.88179 2.34899L5.95895 1.96382ZM5.82459 2.71315C5.81654 2.92679 5.70789 3.10669 5.54487 3.2001L6.04202 4.06776C6.52832 3.78913 6.80391 3.28074 6.82388 2.7508L5.82459 2.71315ZM5.54487 3.2001C5.38126 3.29384 5.16698 3.29799 4.97325 3.19637L4.50873 4.08193C4.97787 4.32802 5.55631 4.34607 6.04202 4.06776L5.54487 3.2001ZM4.97325 3.19637C4.73448 3.07112 4.50702 2.97108 4.25544 2.9382L4.12588 3.92978C4.19683 3.93905 4.29643 3.97057 4.50873 4.08193L4.97325 3.19637ZM4.25544 2.9382C3.77187 2.87502 3.28237 3.00496 2.89451 3.30032L3.50036 4.0959C3.67787 3.96072 3.90292 3.90064 4.12588 3.92978L4.25544 2.9382ZM2.89451 3.30032C2.72735 3.42762 2.5997 3.58484 2.48055 3.76079C2.36398 3.93294 2.2368 4.15209 2.08375 4.41518L2.94812 4.91802C3.10807 4.64308 3.21563 4.45873 3.30856 4.3215C3.39891 4.18808 3.45552 4.13005 3.50036 4.0959L2.89451 3.30032ZM2.08375 4.41518C1.93071 4.67825 1.80304 4.89715 1.71109 5.08345C1.61716 5.27377 1.54354 5.46256 1.51591 5.67083L2.50722 5.80233C2.51448 5.74766 2.53654 5.67047 2.60782 5.52604C2.68109 5.37759 2.78817 5.19298 2.94812 4.91802L2.08375 4.41518ZM1.51591 5.67083C1.4518 6.15409 1.58387 6.64236 1.88214 7.02813L2.67326 6.41647C2.5377 6.24114 2.47831 6.02027 2.50722 5.80233L1.51591 5.67083ZM1.88214 7.02813C2.03725 7.22875 2.23878 7.37447 2.46723 7.51693L2.99637 6.66839C2.79291 6.54152 2.71616 6.47195 2.67326 6.41647L1.88214 7.02813ZM2.46723 7.51693C2.65243 7.63242 2.75354 7.81651 2.75353 7.99997L3.75353 8.00002C3.75356 7.43926 3.44612 6.94885 2.99637 6.6684L2.46723 7.51693ZM2.75353 7.99997C2.75352 8.18341 2.65241 8.36747 2.46724 8.48294L2.99636 9.33148C3.44607 9.05106 3.7535 8.56072 3.75353 8.00002L2.75353 7.99997ZM2.46724 8.48294C2.23876 8.62541 2.0372 8.77114 1.88207 8.97178L2.67319 9.58345C2.71609 9.52796 2.79286 9.45838 2.99636 9.33148L2.46724 8.48294ZM1.88207 8.97178C1.58381 9.35755 1.45173 9.84583 1.51584 10.3291L2.50716 10.1976C2.47825 9.97964 2.53764 9.75877 2.67319 9.58345L1.88207 8.97178ZM1.51584 10.3291C1.54347 10.5374 1.6171 10.7261 1.71103 10.9165C1.80298 11.1028 1.93064 11.3217 2.08368 11.5847L2.94806 11.0819C2.7881 10.8069 2.68102 10.6223 2.60776 10.4739C2.53647 10.3294 2.51441 10.2523 2.50716 10.1976L1.51584 10.3291ZM2.08368 11.5847C2.23673 11.8478 2.36391 12.067 2.48048 12.2391C2.59963 12.4151 2.72728 12.5723 2.89445 12.6996L3.5003 11.904C3.45545 11.8699 3.39884 11.8118 3.3085 11.6784C3.21557 11.5412 3.108 11.3568 2.94806 11.0819L2.08368 11.5847ZM2.89445 12.6996C3.2823 12.995 3.7718 13.1249 4.25537 13.0617L4.12582 12.0701C3.90285 12.0993 3.67781 12.0392 3.5003 11.904L2.89445 12.6996ZM4.25537 13.0617C4.50694 13.0288 4.73439 12.9288 4.97314 12.8036L4.50863 11.918C4.29635 12.0293 4.19676 12.0609 4.12581 12.0701L4.25537 13.0617ZM4.97314 12.8036C5.1669 12.7019 5.38121 12.7061 5.54484 12.7998L6.04199 11.9322C5.55626 11.6539 4.97779 11.6719 4.50863 11.918L4.97314 12.8036ZM5.54483 12.7998C5.70788 12.8933 5.81654 13.0732 5.82459 13.2869L6.82388 13.2492C6.80391 12.7192 6.52831 12.2108 6.04199 11.9322L5.54483 12.7998ZM5.82459 13.2869C5.83469 13.5549 5.86116 13.8018 5.95895 14.0361L6.8818 13.651C6.8551 13.587 6.83285 13.4871 6.82388 13.2492L5.82459 13.2869ZM5.95895 14.0361C6.14669 14.486 6.50626 14.8422 6.95736 15.0276L7.33757 14.1027C7.13028 14.0175 6.96677 13.8546 6.8818 13.651L5.95895 14.0361ZM6.95736 15.0276C7.15152 15.1074 7.35187 15.1384 7.56446 15.1528C7.77263 15.1669 8.02713 15.1666 8.33333 15.1666V14.1666C8.01355 14.1666 7.79857 14.1664 7.63202 14.1551C7.46989 14.1441 7.3903 14.1244 7.33757 14.1027L6.95736 15.0276ZM8.33333 15.1666C8.63954 15.1666 8.89404 15.1669 9.10221 15.1528C9.31479 15.1384 9.51515 15.1074 9.70931 15.0276L9.3291 14.1027C9.27637 14.1244 9.19678 14.1441 9.03465 14.1551C8.8681 14.1664 8.65312 14.1666 8.33333 14.1666V15.1666ZM9.70931 15.0276C10.1604 14.8422 10.52 14.486 10.7077 14.0361L9.78487 13.651C9.6999 13.8546 9.53639 14.0175 9.3291 14.1027L9.70931 15.0276ZM10.7077 14.0361C10.8055 13.8018 10.832 13.5549 10.8421 13.2868L9.84279 13.2491C9.83382 13.4871 9.81157 13.587 9.78487 13.651L10.7077 14.0361ZM10.8421 13.2868C10.8501 13.0731 10.9588 12.8932 11.1218 12.7998L10.6246 11.9322C10.1383 12.2108 9.86275 12.7192 9.84279 13.2491L10.8421 13.2868ZM11.1218 12.7998C11.2854 12.7061 11.4997 12.7019 11.6935 12.8035L12.158 11.918C11.6888 11.6719 11.1103 11.6538 10.6246 11.9322L11.1218 12.7998ZM11.6935 12.8035C11.9322 12.9288 12.1597 13.0288 12.4112 13.0617L12.5408 12.0701C12.4698 12.0608 12.3703 12.0293 12.158 11.918L11.6935 12.8035ZM12.4112 13.0617C12.8948 13.1248 13.3843 12.9949 13.7722 12.6995L13.1663 11.904C12.9888 12.0391 12.7638 12.0992 12.5408 12.0701L12.4112 13.0617ZM13.7722 12.6995C13.9393 12.5722 14.067 12.415 14.1861 12.2391C14.3027 12.0669 14.4299 11.8478 14.5829 11.5847L13.7185 11.0818C13.5586 11.3568 13.451 11.5411 13.3581 11.6784C13.2678 11.8118 13.2112 11.8698 13.1663 11.904L13.7722 12.6995ZM14.5829 11.5847C14.736 11.3216 14.8636 11.1027 14.9556 10.9164C15.0495 10.7261 15.1231 10.5373 15.1508 10.329L14.1594 10.1975C14.1522 10.2522 14.1301 10.3294 14.0588 10.4738C13.9856 10.6223 13.8785 10.8069 13.7185 11.0818L14.5829 11.5847ZM15.1508 10.329C15.2149 9.84578 15.0828 9.35751 14.7845 8.97174L13.9934 9.5834C14.129 9.75872 14.1884 9.9796 14.1594 10.1975L15.1508 10.329ZM14.7845 8.97173C14.6294 8.77111 14.4279 8.62538 14.1994 8.48291L13.6703 9.33145C13.8737 9.45834 13.9505 9.52791 13.9934 9.5834L14.7845 8.97173ZM14.1994 8.48291C14.0142 8.36744 13.9131 8.18338 13.9131 7.99995L12.9131 7.99989C12.9131 8.56062 13.2205 9.05101 13.6703 9.33145L14.1994 8.48291ZM13.9131 7.99995C13.9132 7.81653 14.0142 7.6325 14.1994 7.51705L13.6703 6.6685C13.2206 6.94891 12.9132 7.43923 12.9131 7.99989L13.9131 7.99995ZM14.1994 7.51705C14.4279 7.37456 14.6295 7.22883 14.7846 7.02818L13.9935 6.41651C13.9506 6.47201 13.8738 6.54159 13.6703 6.6685L14.1994 7.51705ZM14.7846 7.02818C15.0829 6.64241 15.2149 6.15413 15.1508 5.67088L14.1595 5.80238C14.1884 6.02032 14.129 6.24119 13.9935 6.41651L14.7846 7.02818ZM15.1508 5.67088C15.1232 5.4626 15.0496 5.27381 14.9556 5.0835C14.8637 4.8972 14.736 4.67829 14.583 4.41522L13.7186 4.91807C13.8786 5.19303 13.9856 5.37764 14.0589 5.52608C14.1302 5.67052 14.1523 5.74771 14.1595 5.80238L15.1508 5.67088ZM14.583 4.41522C14.4299 4.15214 14.3028 3.93298 14.1862 3.76084C14.067 3.58488 13.9394 3.42767 13.7722 3.30037L13.1664 4.09595C13.2112 4.1301 13.2678 4.18812 13.3582 4.32154C13.4511 4.45877 13.5587 4.64313 13.7186 4.91807L14.583 4.41522ZM13.7722 3.30037C13.3844 3.005 12.8949 2.87507 12.4113 2.93825L12.5409 3.92982C12.7638 3.90069 12.9889 3.96077 13.1664 4.09595L13.7722 3.30037ZM12.4113 2.93825C12.1597 2.97112 11.9323 3.07116 11.6935 3.1964L12.158 4.08196C12.3703 3.97061 12.4699 3.93909 12.5409 3.92982L12.4113 2.93825ZM11.6935 3.19639C11.4998 3.29803 11.2855 3.29388 11.1218 3.20012L10.6247 4.06778C11.1104 4.34611 11.6889 4.32806 12.158 4.08196L11.6935 3.19639ZM11.1218 3.20012C10.9588 3.1067 10.8501 2.92678 10.8421 2.71311L9.84279 2.75077C9.86276 3.28072 10.1384 3.78913 10.6247 4.06778L11.1218 3.20012ZM10.8421 2.71311C10.832 2.44506 10.8055 2.19812 10.7077 1.96382L9.78487 2.34898C9.81157 2.41294 9.83382 2.51287 9.84279 2.75077L10.8421 2.71311ZM10.7077 1.96382C10.52 1.514 10.1604 1.1578 9.70931 0.972357L9.3291 1.89726C9.53639 1.98247 9.6999 2.14539 9.78487 2.34898L10.7077 1.96382Z" fill="#838282"/>
<path id="Vector_2" d="M10.3488 8C10.3488 9.10457 9.44657 10 8.33359 10C7.22061 10 6.31836 9.10457 6.31836 8C6.31836 6.89543 7.22061 6 8.33359 6C9.44657 6 10.3488 6.89543 10.3488 8Z" stroke="#838282"/>
</g>
</svg>
