<svg width="164" height="46" viewBox="0 0 164 46" fill="none" xmlns="http://www.w3.org/2000/svg">
<path d="M0 23C0 10.2975 10.2975 0 23 0C35.7025 0 46 10.2975 46 23C46 35.7025 35.7025 46 23 46C10.2975 46 0 35.7025 0 23Z" fill="#F3F3F3"/>
<path d="M33.347 34.0381H33.1819V33.9871H33.5697V34.0381H33.4047V34.5883H33.347V34.0381ZM33.6744 33.9871H33.7348L33.9227 34.4366L34.1106 33.9871H34.171V34.5883H34.1133V34.1186L33.9388 34.5333H33.9052L33.7294 34.1186V34.5883H33.6744V33.9871Z" fill="black"/>
<path d="M26.6616 23.6716H13.1192C12.683 23.6716 12.3274 23.3159 12.3274 22.8798C12.3274 22.4436 12.683 22.088 13.1192 22.088H26.6616C29.6718 22.088 32.1197 19.6388 32.1197 16.6299C32.1197 13.6211 29.6718 11.1719 26.6616 11.1719H12.0777V11.6725H20.4104C23.1442 11.6725 25.3692 13.8962 25.3692 16.6313C25.3692 19.3663 23.1455 21.5901 20.4104 21.5901H13.1192C12.4065 21.5901 11.8281 22.1698 11.8281 22.8811C11.8281 23.5924 12.4079 24.1722 13.1192 24.1722H20.4104C23.1442 24.1722 25.3692 26.3959 25.3692 29.131V34.589H32.1197V29.131C32.1197 26.1208 29.6718 23.6729 26.6616 23.6729V23.6716Z" fill="black"/>
<path d="M122.689 34.7919V22.7797C122.689 22.3313 122.672 21.7408 122.541 21.1481C122.465 20.8084 122.345 20.3689 122.081 19.9648C121.79 19.5208 121.419 19.2478 120.949 19.1301C120.789 19.0902 120.62 19.0702 120.447 19.0702C120.238 19.0702 120.016 19.0991 119.77 19.1568C119.171 19.2988 118.658 19.5763 118.278 19.8006C117.599 20.2024 116.937 20.7107 116.194 21.3967C115.457 22.076 114.74 22.8374 113.996 23.721C113.923 23.8098 113.889 23.8919 113.889 23.9963C113.892 26.9377 113.892 34.7852 113.892 34.7852H110.331V22.7908C110.331 22.2802 110.311 21.6764 110.169 21.0815C110.073 20.6774 109.96 20.3733 109.807 20.1002C109.652 19.8228 109.472 19.6096 109.259 19.4476C108.926 19.1901 108.546 19.0658 108.1 19.0658C107.929 19.0658 107.745 19.0857 107.554 19.1235C107.032 19.2278 106.526 19.4343 105.918 19.7961C105.252 20.1913 104.599 20.6908 103.857 21.3701C102.961 22.1937 102.179 23.0794 101.598 23.7565C101.546 23.8164 101.535 23.8742 101.535 23.9607V34.783H97.9879V16.6904H101.535V23.2903C102.468 21.7696 103.473 20.4621 104.606 19.2966C105.56 18.3132 106.51 17.5495 107.507 16.9635C108.18 16.5683 108.817 16.2997 109.452 16.1443C109.849 16.0466 110.209 16 110.551 16C110.788 16 111.019 16.0244 111.241 16.071C111.947 16.2198 112.526 16.5905 112.961 17.1721C113.29 17.6139 113.516 18.1201 113.674 18.7661C113.798 19.2789 113.861 19.7428 113.867 20.1846C113.876 20.9172 113.878 21.652 113.883 22.3846L113.887 23.3059C114.618 22.1137 115.386 21.0615 116.236 20.0869C117.17 19.0147 118.101 18.16 119.082 17.4718C119.881 16.9102 120.605 16.5306 121.366 16.2775C121.897 16.0999 122.378 16.0111 122.845 16.0044H122.896C123.924 16.0044 124.741 16.3974 125.322 17.1744C125.666 17.6339 125.902 18.1711 126.057 18.8637C126.181 19.4121 126.243 19.9826 126.243 20.5598V34.7874H122.685L122.689 34.7919Z" fill="white"/>
<path d="M82.3703 35.3792C82.0928 35.3792 81.8175 35.3548 81.5511 35.3038C80.5677 35.1195 79.7862 34.6245 79.2313 33.8275C78.896 33.3458 78.6607 32.7797 78.512 32.0982C78.4076 31.6186 78.3566 31.0903 78.3566 30.482C78.3566 25.9866 78.3566 16.836 78.3566 16.7783V16.6984H81.9152V29.0923C81.9152 29.6917 81.9618 30.1735 82.0661 30.6064C82.1882 31.1125 82.3725 31.5054 82.6478 31.8429C83.0984 32.3978 83.7133 32.6776 84.4748 32.6776C84.5458 32.6776 84.6169 32.6753 84.6879 32.6709C85.385 32.6265 86.0576 32.4023 86.8102 31.9672C87.5938 31.5143 88.2953 30.9216 89.0212 30.1046C89.6006 29.452 90.1334 28.7083 90.6507 27.8336C90.704 27.7426 90.7284 27.6538 90.7284 27.5495C90.7284 24.0309 90.7284 16.7761 90.7284 16.7761V16.6961H94.2759V34.7887H90.7617V28.302C90.4686 28.9991 90.1201 29.674 89.7294 30.3133C88.8991 31.6675 87.9335 32.7619 86.7813 33.6543C85.8201 34.398 84.8566 34.8953 83.8332 35.1683C83.3137 35.3082 82.8342 35.3748 82.368 35.3748L82.3703 35.3792Z" fill="white"/>
<path d="M137.788 35.3774C137.018 35.3774 136.245 35.2886 135.497 35.111C133.985 34.7558 132.691 34.041 131.65 32.9887C130.817 32.1473 130.198 31.1639 129.756 29.9785C129.41 29.055 129.192 28.0893 129.11 27.1103C129.084 26.7928 129.064 26.4754 129.046 26.1579C129.046 26.1579 129.019 25.7139 129.019 25.7117C129.03 24.4819 129.186 23.3697 129.496 22.3041C129.903 20.9055 130.527 19.7467 131.403 18.7633C132.667 17.3447 134.296 16.4634 136.241 16.146C136.811 16.0527 137.382 16.0061 137.939 16.0061C138.998 16.0061 140.043 16.177 141.042 16.5145C142.21 16.9074 143.236 17.5445 144.088 18.4059C145.065 19.3937 145.758 20.5858 146.204 22.051C146.439 22.8236 146.588 23.6227 146.659 24.4952C146.725 25.3077 146.723 26.1091 146.654 26.8727C146.503 28.5266 146.073 29.9496 145.34 31.2216C144.69 32.3471 143.831 33.2684 142.787 33.961C141.806 34.6115 140.703 35.0399 139.504 35.2353C138.931 35.3285 138.356 35.3774 137.792 35.3774H137.788ZM135.286 19.003C134.633 19.003 134.034 19.0741 133.459 19.2206C131.896 19.618 130.793 20.4726 130.176 21.7646C129.912 22.3174 129.756 22.9323 129.701 23.6472C129.619 24.7016 129.825 25.7273 130.32 26.6952C130.879 27.7918 131.732 28.7641 132.926 29.6699C134.018 30.4979 135.275 31.1573 136.66 31.6279C137.961 32.0696 139.18 32.2783 140.496 32.285C141.025 32.285 141.835 32.225 142.687 31.9431C143.915 31.5391 144.83 30.8176 145.411 29.8009C145.698 29.2969 145.884 28.7508 145.98 28.127C146.079 27.4855 146.082 26.8949 145.986 26.3222C145.802 25.1989 145.298 24.1666 144.45 23.1632C143.715 22.293 142.79 21.5249 141.697 20.8811C139.868 19.8 138.023 19.1962 136.061 19.0363C135.794 19.0141 135.533 19.003 135.282 19.003H135.286Z" fill="white"/>
<path d="M149.322 34.7897V16.6971H152.825V22.6909C153.48 21.2191 154.259 19.9759 155.202 18.8904C155.997 17.9758 156.812 17.2809 157.691 16.7681C158.366 16.373 158.976 16.1443 159.609 16.0488C159.818 16.0178 160.024 16 160.217 16C160.741 16 161.225 16.1177 161.654 16.3508C162.06 16.5705 162.391 16.8991 162.666 17.3608C162.899 17.7515 163.066 18.2044 163.185 18.7883C163.294 19.3144 163.347 19.876 163.35 20.4998C163.35 20.6175 163.285 20.6908 163.221 20.7551L159.778 24.1583C159.796 23.5345 159.778 22.9085 159.718 22.2869C159.713 22.2358 159.709 22.1892 159.704 22.147C159.647 21.561 159.536 20.7973 159.192 20.0714C159.087 19.8494 158.959 19.6452 158.81 19.4653C158.555 19.1545 158.222 18.9969 157.82 18.9969C157.711 18.9969 157.596 19.008 157.478 19.0325C157.018 19.1212 156.585 19.3099 156.115 19.623C155.442 20.0736 154.821 20.6575 154.163 21.4611C153.753 21.965 153.355 22.5267 152.949 23.1815C152.894 23.2726 152.867 23.3591 152.867 23.4613V34.7941H149.32L149.322 34.7897Z" fill="white"/>
<path d="M160.02 33.8826H159.747V33.7982H160.389V33.8826H160.116V34.7927H160.02V33.8826ZM160.562 33.7982H160.662L160.973 34.5419L161.283 33.7982H161.383V34.7927H161.288V34.0158L160.999 34.7017H160.944L160.653 34.0158V34.7927H160.562V33.7982Z" fill="white"/>
<path d="M62.0022 34.7897V16.6971H65.5053V22.6909C66.1602 21.2191 66.9394 19.9759 67.8829 18.8904C68.6776 17.9758 69.4923 17.2809 70.3714 16.7681C71.0463 16.373 71.6568 16.1443 72.2895 16.0488C72.4981 16.0178 72.7046 16 72.8977 16C73.4216 16 73.9056 16.1177 74.334 16.3508C74.7403 16.5705 75.0711 16.8991 75.3463 17.3608C75.5794 17.7515 75.7459 18.2044 75.8658 18.7883C75.9746 19.3144 76.0279 19.876 76.0301 20.4998C76.0301 20.6175 75.9657 20.6908 75.9013 20.7551L72.4582 24.1583C72.4759 23.5345 72.4582 22.9085 72.3982 22.2869C72.3938 22.2358 72.3894 22.1892 72.3849 22.147C72.3272 21.561 72.2162 20.7973 71.8721 20.0714C71.7678 19.8494 71.639 19.6452 71.4903 19.4653C71.235 19.1545 70.902 18.9969 70.5002 18.9969C70.3914 18.9969 70.276 19.008 70.1583 19.0325C69.6988 19.1212 69.2659 19.3099 68.7953 19.623C68.1226 20.0736 67.501 20.6575 66.8439 21.4611C66.4332 21.965 66.0359 22.5267 65.6296 23.1815C65.5741 23.2726 65.5475 23.3591 65.5475 23.4613V34.7941H62L62.0022 34.7897Z" fill="white"/>
</svg>
