<svg width="10" height="10" viewBox="0 0 10 10" fill="none" xmlns="http://www.w3.org/2000/svg">
<rect width="10" height="10" fill="#2D2D2D"/>
<g clip-path="url(#clip0_12201_28979)">
<rect width="1512" height="982" transform="translate(-658 -348)" fill="#1D1C1C"/>
<rect x="-399" y="-321" width="1233" height="977" rx="36" fill="#F3F3F3"/>
<circle cx="5" cy="5" r="9" fill="black"/>
<path d="M6.6949 4.03149L6.70492 3.89905C6.70993 3.82087 6.71545 3.73737 6.72046 3.64376C6.73649 3.34698 6.74602 3.01936 6.74602 2.66248C6.74602 2.1987 6.59868 1.87161 6.28796 1.56473C5.9572 1.23817 5.55678 1.06372 4.98998 1.06372C4.42017 1.06372 4.00872 1.24189 3.73208 1.53601C3.38328 1.90565 3.25248 2.18381 3.25248 2.65291C3.25248 2.93001 3.28255 3.71343 3.30009 4.04585C3.31424 4.31671 3.23033 4.58307 3.06555 4.79045C3.09261 4.84363 3.11817 4.89948 3.14173 4.95958C3.29207 5.36964 3.24095 5.78024 3.06555 6.16743C2.8691 6.60249 2.69971 6.90831 2.35893 7.31305C2.25789 7.43344 2.15047 7.54763 2.03719 7.65504C2.12206 7.74139 2.19196 7.84293 2.24366 7.95501C2.50892 7.93019 2.77612 7.94361 3.03799 7.99489C3.44392 8.07255 3.70151 8.22572 4.13752 8.5592L4.14553 8.56505L4.25228 8.64589C4.56299 8.87991 4.69179 8.93628 4.99048 8.93628C5.29568 8.93628 5.44653 8.87193 5.75373 8.6427L5.85747 8.56505C6.29698 8.22891 6.56259 8.07201 6.97554 7.99277C7.23379 7.94717 7.49619 7.93396 7.75734 7.95341C7.80964 7.84056 7.8804 7.73845 7.96632 7.65185C7.85797 7.54821 7.75476 7.43868 7.65711 7.32369C7.36556 6.97914 7.12142 6.59255 6.93194 6.17541C6.75002 5.77705 6.6964 5.35635 6.86329 4.94096C6.88333 4.88884 6.90588 4.83991 6.92944 4.79417C6.76033 4.58204 6.67615 4.30864 6.6949 4.03149ZM1.52501 3.97724C1.73549 3.97724 1.8262 4.13945 2.13641 4.13945C2.19251 4.14098 2.2482 4.12898 2.29929 4.10435C2.29528 4.02138 2.25018 3.04808 2.25018 2.65291C2.25018 1.75513 2.6105 1.22221 3.02295 0.783959C3.4354 0.345708 4.07838 0 4.99048 0C5.90258 0 6.52701 0.347304 6.97103 0.786087C7.41505 1.22487 7.74832 1.81257 7.74832 2.66248C7.74832 3.48952 7.69871 4.04212 7.6947 4.10701C7.73777 4.13046 7.78561 4.14234 7.83402 4.14158C8.14974 4.14158 8.14974 3.9767 8.50055 3.9767C8.84434 3.9767 8.99318 4.27986 8.99318 4.41442C8.99318 4.74471 8.57622 4.92873 8.32665 5.0133C8.14173 5.07552 7.86008 5.16807 7.78791 5.35103C7.75133 5.44357 7.76636 5.56377 7.83402 5.71163C7.83602 5.71588 8.46547 7.24497 9.80355 7.48059C9.92132 7.4992 10 7.60877 10 7.73748C10 7.91458 9.81457 8.06563 9.63566 8.15339C9.41365 8.25976 9.08941 8.35017 8.65741 8.42198C8.63586 8.46346 8.59026 8.67993 8.53964 8.89373C8.47198 9.182 8.13872 9.0884 8.0435 9.06712C7.74723 9.00091 7.4421 8.99226 7.14293 9.04159C6.90087 9.08786 6.68538 9.24263 6.44332 9.42772C6.086 9.69578 5.70913 10 4.98998 10C4.27082 10 3.91551 9.69578 3.55818 9.42772C3.31663 9.24263 3.10514 9.08893 2.85908 9.04159C2.40854 8.9549 2.07227 9.06074 1.95901 9.07138C1.84575 9.08255 1.53754 9.20168 1.45986 8.89799C1.43781 8.8097 1.36464 8.46825 1.34259 8.42198C0.9131 8.35017 0.586349 8.25551 0.363837 8.14913C0.180916 8.06138 0 7.91352 0 7.73535C0 7.60983 0.0791821 7.50133 0.196452 7.47846C1.521 7.22157 2.08329 5.88023 2.16147 5.70737C2.22812 5.56058 2.24216 5.44144 2.20758 5.34624C2.13541 5.16381 1.85426 5.0734 1.66934 5.00851C1.61672 4.99043 1.0003 4.81013 1.0003 4.41442C1.0003 4.28678 1.10254 4.10967 1.29147 4.02617C1.37266 3.99106 1.47189 3.97724 1.52501 3.97724Z" fill="#F0F0F0"/>
</g>
<defs>
<clipPath id="clip0_12201_28979">
<rect width="1512" height="982" fill="white" transform="translate(-658 -348)"/>
</clipPath>
</defs>
</svg>
