<svg width="18" height="18" viewBox="0 0 18 18" fill="none" xmlns="http://www.w3.org/2000/svg">
<path d="M8.99984 6.50033C8.3368 6.50033 7.70091 6.76372 7.23207 7.23256C6.76323 7.7014 6.49984 8.33728 6.49984 9.00033C6.49984 9.66337 6.76323 10.2993 7.23207 10.7681C7.70091 11.2369 8.3368 11.5003 8.99984 11.5003C9.66288 11.5003 10.2988 11.2369 10.7676 10.7681C11.2364 10.2993 11.4998 9.66337 11.4998 9.00033C11.4998 8.33728 11.2364 7.7014 10.7676 7.23256C10.2988 6.76372 9.66288 6.50033 8.99984 6.50033ZM8.99984 4.83366C10.1049 4.83366 11.1647 5.27265 11.9461 6.05405C12.7275 6.83545 13.1665 7.89526 13.1665 9.00033C13.1665 10.1054 12.7275 11.1652 11.9461 11.9466C11.1647 12.728 10.1049 13.167 8.99984 13.167C7.89477 13.167 6.83496 12.728 6.05356 11.9466C5.27216 11.1652 4.83317 10.1054 4.83317 9.00033C4.83317 7.89526 5.27216 6.83545 6.05356 6.05405C6.83496 5.27265 7.89477 4.83366 8.99984 4.83366ZM14.4165 4.62533C14.4165 4.90159 14.3068 5.16654 14.1114 5.3619C13.9161 5.55725 13.6511 5.66699 13.3748 5.66699C13.0986 5.66699 12.8336 5.55725 12.6383 5.3619C12.4429 5.16654 12.3332 4.90159 12.3332 4.62533C12.3332 4.34906 12.4429 4.08411 12.6383 3.88876C12.8336 3.69341 13.0986 3.58366 13.3748 3.58366C13.6511 3.58366 13.9161 3.69341 14.1114 3.88876C14.3068 4.08411 14.4165 4.34906 14.4165 4.62533ZM8.99984 2.33366C6.93817 2.33366 6.6015 2.33949 5.64234 2.38199C4.989 2.41283 4.55067 2.50033 4.144 2.65866C3.80368 2.78361 3.49601 2.98388 3.244 3.24449C2.98318 3.49649 2.78263 3.80415 2.65734 4.14449C2.499 4.55283 2.4115 4.99033 2.3815 5.64283C2.33817 6.56283 2.33234 6.88449 2.33234 9.00033C2.33234 11.0628 2.33817 11.3987 2.38067 12.3578C2.4115 13.0103 2.499 13.4495 2.6565 13.8553C2.79817 14.2178 2.96484 14.4787 3.2415 14.7553C3.52234 15.0353 3.78317 15.2028 4.1415 15.3412C4.55317 15.5003 4.9915 15.5887 5.6415 15.6187C6.5615 15.662 6.88317 15.667 8.999 15.667C11.0615 15.667 11.3973 15.6612 12.3565 15.6187C13.0082 15.5878 13.4465 15.5003 13.854 15.3428C14.194 15.2173 14.5016 15.0171 14.754 14.757C15.0348 14.477 15.2023 14.2162 15.3407 13.857C15.499 13.447 15.5873 13.0087 15.6173 12.357C15.6607 11.4378 15.6657 11.1153 15.6657 9.00033C15.6657 6.93866 15.6598 6.60199 15.6173 5.64283C15.5865 4.99116 15.4982 4.55116 15.3407 4.14449C15.2151 3.80451 15.0149 3.49698 14.7548 3.24449C14.5029 2.98353 14.1953 2.78296 13.8548 2.65783C13.4465 2.49949 13.0082 2.41199 12.3565 2.38199C11.4373 2.33866 11.1165 2.33366 8.99984 2.33366ZM8.99984 0.666992C11.264 0.666992 11.5465 0.675325 12.4357 0.716992C13.3223 0.758659 13.9273 0.897826 14.4582 1.10449C15.0082 1.31616 15.4715 1.60283 15.9348 2.06533C16.3586 2.48191 16.6865 2.98582 16.8957 3.54199C17.1015 4.07283 17.2415 4.67782 17.2832 5.56533C17.3223 6.45366 17.3332 6.73616 17.3332 9.00033C17.3332 11.2645 17.3248 11.547 17.2832 12.4353C17.2415 13.3228 17.1015 13.927 16.8957 14.4587C16.687 15.0151 16.3591 15.5192 15.9348 15.9353C15.5181 16.3589 15.0143 16.6868 14.4582 16.8962C13.9273 17.102 13.3223 17.242 12.4357 17.2837C11.5465 17.3228 11.264 17.3337 8.99984 17.3337C6.73567 17.3337 6.45317 17.3253 5.564 17.2837C4.67734 17.242 4.07317 17.102 3.5415 16.8962C2.98511 16.6874 2.48111 16.3594 2.06484 15.9353C1.64103 15.5188 1.31314 15.0149 1.104 14.4587C0.897337 13.9278 0.758171 13.3228 0.716504 12.4353C0.676504 11.547 0.666504 11.2645 0.666504 9.00033C0.666504 6.73616 0.674837 6.45366 0.716504 5.56533C0.758171 4.67699 0.897337 4.07366 1.104 3.54199C1.31253 2.98547 1.64051 2.48143 2.06484 2.06533C2.48123 1.64135 2.98519 1.31343 3.5415 1.10449C4.07234 0.897826 4.6765 0.758659 5.564 0.716992C6.45317 0.677825 6.73567 0.666992 8.99984 0.666992Z" fill="#F0F0F0"/>
</svg>
