<svg width="16" height="16" viewBox="0 0 16 16" fill="none" xmlns="http://www.w3.org/2000/svg">
<path d="M10.7118 6.45038L10.7279 6.23849C10.7359 6.11339 10.7447 5.97979 10.7527 5.83002C10.7784 5.35518 10.7936 4.83098 10.7936 4.25997C10.7936 3.51792 10.5579 2.99458 10.0607 2.50356C9.53152 1.98107 8.89085 1.70195 7.98396 1.70195C7.07227 1.70195 6.41395 1.98702 5.97133 2.45761C5.41325 3.04904 5.20397 3.4941 5.20397 4.24465C5.20397 4.68801 5.25208 5.9415 5.28014 6.47335C5.30278 6.90673 5.16854 7.33291 4.90488 7.66472C4.94818 7.74981 4.98907 7.83917 5.02676 7.93533C5.26731 8.59143 5.18553 9.24838 4.90488 9.86789C4.59056 10.564 4.31953 11.0533 3.77428 11.7009C3.61263 11.8935 3.44075 12.0762 3.2595 12.2481C3.3953 12.3862 3.50713 12.5487 3.58986 12.728C4.01427 12.6883 4.4418 12.7098 4.86078 12.7918C5.51027 12.9161 5.92242 13.1612 6.62003 13.6947L6.63285 13.7041L6.80365 13.8334C7.30079 14.2079 7.50687 14.2981 7.98477 14.2981C8.47309 14.2981 8.71444 14.1951 9.20597 13.8283L9.37195 13.7041C10.0752 13.1663 10.5001 12.9152 11.1609 12.7884C11.5741 12.7155 11.9939 12.6943 12.4117 12.7255C12.4954 12.5449 12.6086 12.3815 12.7461 12.243C12.5728 12.0771 12.4076 11.9019 12.2514 11.7179C11.7849 11.1666 11.3943 10.5481 11.0911 9.88065C10.8 9.24327 10.7142 8.57015 10.9813 7.90554C11.0133 7.82215 11.0494 7.74386 11.0871 7.67067C10.8165 7.33126 10.6818 6.89382 10.7118 6.45038ZM2.44001 6.36358C2.77679 6.36358 2.92192 6.62313 3.41826 6.62313C3.50801 6.62557 3.59712 6.60636 3.67886 6.56696C3.67245 6.43421 3.60028 4.87693 3.60028 4.24465C3.60028 2.80821 4.17681 1.95554 4.83672 1.25433C5.49664 0.553133 6.52541 0 7.98477 0C9.44412 0 10.4432 0.555686 11.1537 1.25774C11.8641 1.95979 12.3973 2.90012 12.3973 4.25997C12.3973 5.58324 12.3179 6.4674 12.3115 6.57122C12.3804 6.60874 12.457 6.62774 12.5344 6.62653C13.0396 6.62653 13.0396 6.36273 13.6009 6.36273C14.1509 6.36273 14.3891 6.84778 14.3891 7.06308C14.3891 7.59153 13.722 7.88597 13.3226 8.02127C13.0268 8.12084 12.5761 8.26891 12.4607 8.56164C12.4021 8.70971 12.4262 8.90203 12.5344 9.1386C12.5376 9.14541 13.5448 11.592 15.6857 11.9689C15.8741 11.9987 16 12.174 16 12.38C16 12.6633 15.7033 12.905 15.4171 13.0454C15.0618 13.2156 14.543 13.3603 13.8519 13.4752C13.8174 13.5415 13.7444 13.8879 13.6634 14.23C13.5552 14.6912 13.0219 14.5414 12.8696 14.5074C12.3956 14.4014 11.9074 14.3876 11.4287 14.4665C11.0414 14.5406 10.6966 14.7882 10.3093 15.0844C9.7376 15.5132 9.13461 16 7.98396 16C6.83332 16 6.26481 15.5132 5.69309 15.0844C5.3066 14.7882 4.96823 14.5423 4.57452 14.4665C3.85366 14.3278 3.31563 14.4972 3.13441 14.5142C2.95319 14.5321 2.46006 14.7227 2.33577 14.2368C2.30049 14.0955 2.18342 13.5492 2.14814 13.4752C1.46096 13.3603 0.938158 13.2088 0.582139 13.0386C0.289466 12.8982 0 12.6616 0 12.3766C0 12.1757 0.126691 12.0021 0.314323 11.9655C2.4336 11.5545 3.33327 9.40836 3.45835 9.13179C3.565 8.89693 3.58745 8.70631 3.53212 8.55398C3.41666 8.2621 2.96682 8.11743 2.67094 8.01362C2.58675 7.98468 1.60048 7.6962 1.60048 7.06308C1.60048 6.85885 1.76406 6.57547 2.06635 6.44187C2.19625 6.3857 2.35502 6.36358 2.44001 6.36358Z" fill="#F0F0F0"/>
</svg>
