<svg width="16" height="18" viewBox="0 0 16 18" fill="none" xmlns="http://www.w3.org/2000/svg">
<path d="M12.2261 3.35183C11.5933 2.63858 11.2445 1.7226 11.2448 0.774414H8.38414V12.1077C8.36207 12.721 8.0998 13.302 7.65256 13.7282C7.20531 14.1544 6.60799 14.3926 5.98638 14.3927C4.67178 14.3927 3.57937 13.3325 3.57937 12.0163C3.57937 10.4443 5.11616 9.26527 6.69923 9.74968V6.86151C3.50531 6.44108 0.709473 8.89054 0.709473 12.0163C0.709473 15.0599 3.26461 17.226 5.97712 17.226C8.88405 17.226 11.2448 14.8954 11.2448 12.0163V6.26742C12.4048 7.08987 13.7975 7.53113 15.2256 7.52872V4.70452C15.2256 4.70452 13.4851 4.78678 12.2261 3.35183Z" fill="#F0F0F0"/>
</svg>
