<svg width="18" height="14" viewBox="0 0 18 14" fill="none" xmlns="http://www.w3.org/2000/svg">
<path d="M9 0C9.7695 0 10.5588 0.0192501 11.3238 0.0507501L12.2274 0.09275L13.0923 0.142625L13.9023 0.196L14.6421 0.252C15.4449 0.311743 16.2004 0.644828 16.7756 1.19266C17.3507 1.74049 17.7088 2.46797 17.7867 3.24712L17.8227 3.619L17.8902 4.41525C17.9532 5.24037 18 6.13987 18 7C18 7.86013 17.9532 8.75963 17.8902 9.58475L17.8227 10.381C17.811 10.5087 17.7993 10.6321 17.7867 10.7529C17.7088 11.5322 17.3506 12.2598 16.7752 12.8076C16.1999 13.3555 15.4442 13.6885 14.6412 13.748L13.9032 13.8031L13.0932 13.8574L12.2274 13.9072L11.3238 13.9492C10.5496 13.982 9.77488 13.9989 9 14C8.22512 13.9989 7.45035 13.982 6.6762 13.9492L5.7726 13.9072L4.9077 13.8574L4.0977 13.8031L3.3579 13.748C2.55506 13.6883 1.7996 13.3552 1.22443 12.8073C0.649254 12.2595 0.291217 11.532 0.2133 10.7529L0.1773 10.381L0.1098 9.58475C0.0409838 8.72475 0.00435962 7.86259 0 7C0 6.13987 0.0468 5.24037 0.1098 4.41525L0.1773 3.619C0.189 3.49125 0.2007 3.36787 0.2133 3.24712C0.291187 2.46811 0.649095 1.74074 1.22408 1.19293C1.79907 0.645112 2.55432 0.31194 3.357 0.252L4.0959 0.196L4.9059 0.142625L5.7717 0.09275L6.6753 0.0507501C7.44975 0.0180538 8.22482 0.00113338 9 0ZM9 1.75C8.2575 1.75 7.4934 1.76925 6.75 1.799L5.8698 1.84013L5.0247 1.88825L4.2309 1.94075L3.5037 1.99588C3.1215 2.02224 2.76124 2.17932 2.48678 2.43926C2.21233 2.69921 2.0414 3.04523 2.0043 3.416C1.899 4.47388 1.8 5.79075 1.8 7C1.8 8.20925 1.899 9.52613 2.0043 10.584C2.0808 11.347 2.7036 11.9402 3.5037 12.0041L4.2309 12.0584L5.0247 12.1109L5.8698 12.1599L6.75 12.201C7.4934 12.2308 8.2575 12.25 9 12.25C9.7425 12.25 10.5066 12.2308 11.25 12.201L12.1302 12.1599L12.9753 12.1117L13.7691 12.0592L14.4963 12.0041C14.8785 11.9778 15.2388 11.8207 15.5132 11.5607C15.7877 11.3008 15.9586 10.9548 15.9957 10.584C16.101 9.52613 16.2 8.20925 16.2 7C16.2 5.79075 16.101 4.47388 15.9957 3.416C15.9586 3.04523 15.7877 2.69921 15.5132 2.43926C15.2388 2.17932 14.8785 2.02224 14.4963 1.99588L13.7691 1.94162L12.9753 1.88912L12.1302 1.84013L11.25 1.799C10.5004 1.76765 9.75027 1.75131 9 1.75ZM7.2 4.87812C7.19994 4.79261 7.22137 4.70837 7.26243 4.63273C7.30349 4.5571 7.36293 4.49237 7.43558 4.44416C7.50823 4.39594 7.5919 4.36572 7.6793 4.35611C7.76671 4.34649 7.85521 4.35779 7.9371 4.389L8.01 4.424L11.79 6.545C11.8653 6.58722 11.9289 6.64649 11.9756 6.71776C12.0223 6.78903 12.0506 6.87019 12.0581 6.95437C12.0656 7.03854 12.0521 7.12323 12.0188 7.20125C11.9854 7.27927 11.9332 7.34831 11.8665 7.4025L11.79 7.455L8.01 9.57687C7.93383 9.61976 7.84802 9.64389 7.76006 9.64717C7.67211 9.65044 7.58466 9.63276 7.50533 9.59567C7.42601 9.55858 7.35721 9.50319 7.30494 9.43434C7.25266 9.36548 7.21849 9.28525 7.2054 9.20063L7.2 9.12187V4.87812Z" fill="white"/>
</svg>
