<svg width="17" height="17" viewBox="0 0 17 17" fill="none" xmlns="http://www.w3.org/2000/svg">
<g id="Bold / Like / Star">
<path id="Vector" d="M6.48284 3.83095C7.38005 2.22144 7.82866 1.41669 8.49935 1.41669C9.17004 1.41669 9.61865 2.22144 10.5159 3.83095L10.748 4.24735C11.0029 4.70472 11.1304 4.93341 11.3292 5.0843C11.5279 5.23519 11.7755 5.2912 12.2706 5.40322L12.7213 5.50521C14.4636 5.89941 15.3348 6.09652 15.542 6.763C15.7493 7.42948 15.1554 8.12395 13.9676 9.51288L13.6603 9.87222C13.3228 10.2669 13.154 10.4643 13.0781 10.7084C13.0022 10.9525 13.0277 11.2158 13.0787 11.7425L13.1252 12.2219C13.3048 14.075 13.3946 15.0016 12.852 15.4135C12.3094 15.8254 11.4937 15.4499 9.86241 14.6988L9.44038 14.5044C8.97682 14.291 8.74504 14.1843 8.49935 14.1843C8.25366 14.1843 8.02188 14.291 7.55832 14.5044L7.13629 14.6988C5.50499 15.4499 4.68935 15.8254 4.14675 15.4135C3.60414 15.0016 3.69393 14.075 3.8735 12.2219L3.91996 11.7425C3.97099 11.2158 3.99651 10.9525 3.92059 10.7084C3.84466 10.4643 3.6759 10.2669 3.33837 9.87222L3.03108 9.51289C1.84332 8.12395 1.24943 7.42948 1.45669 6.763C1.66394 6.09652 2.53508 5.89941 4.27735 5.50521L4.7281 5.40322C5.2232 5.2912 5.47075 5.23519 5.66952 5.0843C5.86828 4.93341 5.99576 4.70472 6.25072 4.24735L6.48284 3.83095Z" fill="white"/>
</g>
</svg>
