<svg width="16" height="16" viewBox="0 0 16 16" fill="none" xmlns="http://www.w3.org/2000/svg">
<g id="Broken / Users / Users Group Rounded">
<circle id="Vector" cx="6.00065" cy="3.99998" r="2.66667" stroke="#838282"/>
<path id="Vector_2" d="M10 6C11.1046 6 12 5.10457 12 4C12 2.89543 11.1046 2 10 2" stroke="#838282" stroke-linecap="round"/>
<path id="Vector_3" d="M3.92675 13.7229C4.5515 13.9003 5.25569 14 6.00065 14C8.57798 14 10.6673 12.8061 10.6673 11.3334C10.6673 9.86059 8.57798 8.66669 6.00065 8.66669C3.42332 8.66669 1.33398 9.86059 1.33398 11.3334C1.33398 11.5636 1.38503 11.7869 1.481 12" stroke="#838282" stroke-linecap="round"/>
<path id="Vector_4" d="M12 9.33331C13.1695 9.58978 14 10.2393 14 11C14 11.6862 13.3242 12.2819 12.3333 12.5803" stroke="#838282" stroke-linecap="round"/>
</g>
</svg>
