<svg width="27" height="27" viewBox="0 0 27 27" fill="none" xmlns="http://www.w3.org/2000/svg">
<g id="user-plus">
<path id="Vector" d="M10.9701 10.0413C10.9591 10.3735 11.0137 10.7047 11.1307 11.0158C11.2477 11.327 11.4248 11.612 11.6519 11.8547C11.8791 12.0974 12.1518 12.293 12.4545 12.4303C12.7573 12.5676 13.0841 12.6439 13.4163 12.6549C13.7485 12.6659 14.0797 12.6113 14.3908 12.4943C14.702 12.3773 14.987 12.2002 15.2297 11.9731C15.4724 11.7459 15.668 11.4732 15.8053 11.1705C15.9426 10.8677 16.0189 10.5409 16.0299 10.2087C16.0409 9.87647 15.9863 9.54533 15.8693 9.23419C15.7523 8.92304 15.5752 8.63799 15.3481 8.3953C15.1209 8.1526 14.8482 7.95703 14.5455 7.81974C14.2427 7.68245 13.9159 7.60612 13.5837 7.59513C13.2515 7.58414 12.9203 7.6387 12.6092 7.75568C12.298 7.87266 12.013 8.04979 11.7703 8.27693C11.5276 8.50408 11.332 8.77681 11.1947 9.07954C11.0574 9.38227 10.9811 9.70908 10.9701 10.0413Z" stroke="black" stroke-width="1.5" stroke-linecap="round" stroke-linejoin="round"/>
<path id="Vector_2" d="M13.5 16.0313C12.4162 16.0312 11.3568 16.3519 10.4557 16.9526C9.55457 17.5534 8.85224 18.4072 8.4375 19.4062" stroke="black" stroke-width="1.5" stroke-linecap="round" stroke-linejoin="round"/>
<path id="Vector_3" d="M21.0938 17.1562H16.5938" stroke="black" stroke-width="1.5" stroke-linecap="round" stroke-linejoin="round"/>
<path id="Vector_4" d="M18.8438 19.4062V14.9062" stroke="black" stroke-width="1.5" stroke-linecap="round" stroke-linejoin="round"/>
</g>
</svg>
