<svg width="27" height="27" viewBox="0 0 27 27" fill="none" xmlns="http://www.w3.org/2000/svg">
<g id="ph:play-circle-fill">
<path id="Vector" d="M13.4021 3.30469C11.3753 3.30469 9.39399 3.90571 7.70874 5.03176C6.02349 6.1578 4.71 7.7583 3.93437 9.63084C3.15874 11.5034 2.9558 13.5639 3.35121 15.5518C3.74663 17.5397 4.72264 19.3656 6.15582 20.7988C7.58901 22.232 9.41499 23.208 11.4029 23.6034C13.3908 23.9989 15.4513 23.7959 17.3238 23.0203C19.1964 22.2446 20.7968 20.9312 21.9229 19.2459C23.0489 17.5607 23.65 15.5793 23.65 13.5525C23.6448 10.8362 22.5634 8.23267 20.6427 6.31196C18.722 4.39125 16.1184 3.3099 13.4021 3.30469ZM16.9889 14.2127L12.2591 17.3659C12.1286 17.4466 11.9789 17.4909 11.8255 17.494C11.6955 17.4939 11.5673 17.4635 11.4511 17.4053C11.3251 17.3373 11.22 17.2362 11.147 17.113C11.0741 16.9897 11.0362 16.8489 11.0372 16.7057V10.3993C11.0362 10.2561 11.0741 10.1153 11.147 9.99208C11.22 9.86882 11.3251 9.76775 11.4511 9.69973C11.5776 9.63567 11.7187 9.60563 11.8603 9.61254C12.002 9.61945 12.1394 9.66308 12.2591 9.73914L16.9889 12.8923C17.0987 12.964 17.1889 13.0618 17.2513 13.1771C17.3137 13.2924 17.3464 13.4214 17.3464 13.5525C17.3464 13.6836 17.3137 13.8126 17.2513 13.9279C17.1889 14.0432 17.0987 14.1411 16.9889 14.2127Z" fill="white"/>
</g>
</svg>
