<svg width="12" height="16" viewBox="0 0 12 16" fill="none" xmlns="http://www.w3.org/2000/svg">
<path id="Vector" d="M2.57419 8.01302V3.60826C2.57419 2.7321 2.93353 1.89182 3.57314 1.27228C4.21275 0.652741 5.08026 0.304688 5.98481 0.304688C6.88936 0.304688 7.75686 0.652741 8.39648 1.27228C9.03609 1.89182 9.39542 2.7321 9.39542 3.60826V8.01302C9.39542 8.88918 9.03609 9.72946 8.39648 10.349C7.75686 10.9685 6.88936 11.3166 5.98481 11.3166C5.08026 11.3166 4.21275 10.9685 3.57314 10.349C2.93353 9.72946 2.57419 8.88918 2.57419 8.01302ZM11.1292 8.0199C10.9805 8.00438 10.8314 8.04625 10.7144 8.13643C10.5973 8.22661 10.5217 8.35784 10.5039 8.50167C10.3791 9.57798 9.84921 10.572 9.01558 11.2939C8.18195 12.0157 7.10298 12.4147 5.98481 12.4147C4.86664 12.4147 3.78766 12.0157 2.95403 11.2939C2.1204 10.572 1.59056 9.57798 1.46574 8.50167C1.44791 8.35784 1.37227 8.22661 1.25523 8.13643C1.13818 8.04625 0.989162 8.00438 0.840465 8.0199C0.765936 8.02674 0.693571 8.04794 0.627629 8.08227C0.561687 8.11659 0.503501 8.16335 0.456493 8.21979C0.409485 8.27622 0.374607 8.34119 0.35391 8.41088C0.333213 8.48056 0.327116 8.55356 0.335978 8.62556C0.481356 9.8748 1.06534 11.0378 1.99017 11.9198C2.915 12.8018 4.12455 13.3494 5.41637 13.4708V15.1708C5.41637 15.3168 5.47626 15.4568 5.58286 15.5601C5.68947 15.6633 5.83405 15.7214 5.98481 15.7214C6.13557 15.7214 6.28015 15.6633 6.38675 15.5601C6.49336 15.4568 6.55324 15.3168 6.55324 15.1708V13.4708C7.84506 13.3494 9.05462 12.8018 9.97945 11.9198C10.9043 11.0378 11.4883 9.8748 11.6336 8.62556C11.6425 8.55356 11.6364 8.48056 11.6157 8.41088C11.595 8.34119 11.5601 8.27622 11.5131 8.21979C11.4661 8.16335 11.4079 8.11659 11.342 8.08227C11.276 8.04794 11.2037 8.02674 11.1292 8.0199Z" fill="black"/>
</svg>
