<svg width="117" height="29" viewBox="0 0 117 29" fill="none" xmlns="http://www.w3.org/2000/svg">
<g id="Group 29">
<g id="Group 27">
<line id="Line 7" x1="2.93855" y1="10.5186" x2="2.93855" y2="18.587" stroke="#A7A7A7" stroke-width="4.27164" stroke-linecap="round"/>
<line id="Line 8" x1="9.58504" y1="6.72176" x2="9.58504" y2="22.384" stroke="#A7A7A7" stroke-width="4.27164" stroke-linecap="round"/>
<line id="Line 10" x1="21.9229" y1="6.72176" x2="21.9229" y2="22.384" stroke="#A7A7A7" stroke-width="4.27164" stroke-linecap="round"/>
<line id="Line 20" x1="83.6241" y1="10.5186" x2="83.6241" y2="18.587" stroke="#A7A7A7" stroke-width="4.27164" stroke-linecap="round"/>
<line id="Line 21" x1="89.3194" y1="6.72176" x2="89.3194" y2="22.384" stroke="#A7A7A7" stroke-width="4.27164" stroke-linecap="round"/>
<line id="Line 22" x1="95.9639" y1="10.5186" x2="95.9639" y2="18.587" stroke="#A7A7A7" stroke-width="4.27164" stroke-linecap="round"/>
<line id="Line 23" x1="101.659" y1="8.6202" x2="101.659" y2="20.4855" stroke="#A7A7A7" stroke-width="4.27164" stroke-linecap="round"/>
<line id="Line 24" x1="108.304" y1="10.5186" x2="108.304" y2="18.587" stroke="#A7A7A7" stroke-width="4.27164" stroke-linecap="round"/>
<line id="Line 13" x1="39.9581" y1="8.6202" x2="39.9581" y2="20.4855" stroke="#A7A7A7" stroke-width="4.27164" stroke-linecap="round"/>
<line id="Line 14" x1="46.6026" y1="6.72176" x2="46.6026" y2="22.384" stroke="#A7A7A7" stroke-width="4.27164" stroke-linecap="round"/>
<line id="Line 15" x1="52.2979" y1="8.6202" x2="52.2979" y2="20.4855" stroke="#A7A7A7" stroke-width="4.27164" stroke-linecap="round"/>
<line id="Line 11" x1="27.6182" y1="10.5186" x2="27.6182" y2="18.587" stroke="#A7A7A7" stroke-width="4.27164" stroke-linecap="round"/>
<line id="Line 18" x1="71.2843" y1="10.5186" x2="71.2843" y2="18.587" stroke="#A7A7A7" stroke-width="4.27164" stroke-linecap="round"/>
<line id="Line 19" x1="76.9796" y1="12.4171" x2="76.9796" y2="16.6885" stroke="#A7A7A7" stroke-width="4.27164" stroke-linecap="round"/>
<line id="Line 16" x1="58.9444" y1="10.5186" x2="58.9444" y2="18.587" stroke="#A7A7A7" stroke-width="4.27164" stroke-linecap="round"/>
<line id="Line 17" x1="64.6397" y1="8.6202" x2="64.6397" y2="20.4855" stroke="#A7A7A7" stroke-width="4.27164" stroke-linecap="round"/>
<line id="Line 12" x1="34.2647" y1="12.4171" x2="34.2647" y2="16.6885" stroke="#A7A7A7" stroke-width="4.27164" stroke-linecap="round"/>
<line id="Line 25" x1="113.999" y1="12.4171" x2="113.999" y2="16.6885" stroke="#A7A7A7" stroke-width="4.27164" stroke-linecap="round"/>
<line id="Line 9" x1="15.2804" y1="2.92488" x2="15.2804" y2="26.181" stroke="#A7A7A7" stroke-width="4.27164" stroke-linecap="round"/>
</g>
<g id="Group 28">
<line id="Line 7_2" x1="2.93855" y1="10.5186" x2="2.93855" y2="18.587" stroke="white" stroke-width="4.27164" stroke-linecap="round"/>
<line id="Line 8_2" x1="9.58504" y1="6.72176" x2="9.58504" y2="22.384" stroke="white" stroke-width="4.27164" stroke-linecap="round"/>
<line id="Line 10_2" x1="21.9229" y1="6.72176" x2="21.9229" y2="22.384" stroke="white" stroke-width="4.27164" stroke-linecap="round"/>
<line id="Line 13_2" x1="39.9581" y1="8.6202" x2="39.9581" y2="20.4855" stroke="white" stroke-width="4.27164" stroke-linecap="round"/>
<line id="Line 14_2" x1="46.6026" y1="6.72176" x2="46.6026" y2="22.384" stroke="white" stroke-width="4.27164" stroke-linecap="round"/>
<line id="Line 15_2" x1="52.2979" y1="8.6202" x2="52.2979" y2="20.4855" stroke="white" stroke-width="4.27164" stroke-linecap="round"/>
<line id="Line 11_2" x1="27.6182" y1="10.5186" x2="27.6182" y2="18.587" stroke="white" stroke-width="4.27164" stroke-linecap="round"/>
<line id="Line 16_2" x1="58.9444" y1="10.5186" x2="58.9444" y2="18.587" stroke="white" stroke-width="4.27164" stroke-linecap="round"/>
<line id="Line 12_2" x1="34.2647" y1="12.4171" x2="34.2647" y2="16.6885" stroke="white" stroke-width="4.27164" stroke-linecap="round"/>
<line id="Line 9_2" x1="15.2804" y1="2.92488" x2="15.2804" y2="26.181" stroke="white" stroke-width="4.27164" stroke-linecap="round"/>
</g>
</g>
</svg>
