<svg width="10" height="8" viewBox="0 0 10 8" fill="none" xmlns="http://www.w3.org/2000/svg">
<path id="Vector" d="M4 5.5L6.595 4L4 2.5V5.5ZM9.78 1.585C9.845 1.82 9.89 2.135 9.92 2.535C9.955 2.935 9.97 3.28 9.97 3.58L10 4C10 5.095 9.92 5.9 9.78 6.415C9.655 6.865 9.365 7.155 8.915 7.28C8.68 7.345 8.25 7.39 7.59 7.42C6.94 7.455 6.345 7.47 5.795 7.47L5 7.5C2.905 7.5 1.6 7.42 1.085 7.28C0.635 7.155 0.345 6.865 0.22 6.415C0.155 6.18 0.11 5.865 0.08 5.465C0.045 5.065 0.03 4.72 0.03 4.42L0 4C0 2.905 0.08 2.1 0.22 1.585C0.345 1.135 0.635 0.845 1.085 0.72C1.32 0.655 1.75 0.61 2.41 0.58C3.06 0.545 3.655 0.53 4.205 0.53L5 0.5C7.095 0.5 8.4 0.58 8.915 0.72C9.365 0.845 9.655 1.135 9.78 1.585Z" fill="white"/>
</svg>
