<svg width="20" height="21" viewBox="0 0 20 21" fill="none" xmlns="http://www.w3.org/2000/svg">
<g id="fluent:delete-20-regular">
<path id="Vector" d="M8.58235 4.76515H11.4599C11.4599 4.38356 11.3083 4.0176 11.0385 3.74778C10.7687 3.47796 10.4027 3.32637 10.0211 3.32637C9.63954 3.32637 9.27358 3.47796 9.00376 3.74778C8.73393 4.0176 8.58235 4.38356 8.58235 4.76515ZM7.62317 4.76515C7.62317 4.12917 7.87581 3.51924 8.32551 3.06953C8.77522 2.61983 9.38515 2.36719 10.0211 2.36719C10.6571 2.36719 11.267 2.61983 11.7167 3.06953C12.1664 3.51924 12.4191 4.12917 12.4191 4.76515H17.215C17.3422 4.76515 17.4642 4.81568 17.5541 4.90562C17.6441 4.99556 17.6946 5.11754 17.6946 5.24474C17.6946 5.37193 17.6441 5.49392 17.5541 5.58386C17.4642 5.6738 17.3422 5.72433 17.215 5.72433H16.204L15.0588 15.6461C14.9778 16.3475 14.6418 16.9946 14.1148 17.4643C13.5877 17.9341 12.9064 18.1937 12.2004 18.1937H7.84186C7.13586 18.1937 6.45451 17.9341 5.92746 17.4643C5.40041 16.9946 5.06445 16.3475 4.98349 15.6461L3.83823 5.72433H2.82725C2.70005 5.72433 2.57807 5.6738 2.48813 5.58386C2.39818 5.49392 2.34766 5.37193 2.34766 5.24474C2.34766 5.11754 2.39818 4.99556 2.48813 4.90562C2.57807 4.81568 2.70005 4.76515 2.82725 4.76515H7.62317ZM5.93596 15.5368C5.99008 16.0043 6.21417 16.4356 6.56559 16.7486C6.91701 17.0617 7.37123 17.2346 7.84186 17.2345H12.2004C12.671 17.2346 13.1252 17.0617 13.4767 16.7486C13.8281 16.4356 14.0522 16.0043 14.1063 15.5368L15.2381 5.72433H4.80413L5.93596 15.5368ZM8.58235 8.12229C8.70955 8.12229 8.83153 8.17282 8.92147 8.26276C9.01141 8.3527 9.06194 8.47469 9.06194 8.60188V14.357C9.06194 14.4842 9.01141 14.6062 8.92147 14.6961C8.83153 14.786 8.70955 14.8366 8.58235 14.8366C8.45515 14.8366 8.33317 14.786 8.24323 14.6961C8.15329 14.6062 8.10276 14.4842 8.10276 14.357V8.60188C8.10276 8.47469 8.15329 8.3527 8.24323 8.26276C8.33317 8.17282 8.45515 8.12229 8.58235 8.12229ZM11.9395 8.60188C11.9395 8.47469 11.889 8.3527 11.799 8.26276C11.7091 8.17282 11.5871 8.12229 11.4599 8.12229C11.3327 8.12229 11.2107 8.17282 11.1208 8.26276C11.0308 8.3527 10.9803 8.47469 10.9803 8.60188V14.357C10.9803 14.4842 11.0308 14.6062 11.1208 14.6961C11.2107 14.786 11.3327 14.8366 11.4599 14.8366C11.5871 14.8366 11.7091 14.786 11.799 14.6961C11.889 14.6062 11.9395 14.4842 11.9395 14.357V8.60188Z" fill="black"/>
</g>
</svg>
