<svg width="35" height="34" viewBox="0 0 35 34" fill="none" xmlns="http://www.w3.org/2000/svg">
<g id="bi:plus">
<path id="Vector" d="M12.8364 12.7574C12.977 12.6167 13.1678 12.5377 13.3667 12.5377C13.5656 12.5377 13.7564 12.6167 13.8971 12.7574L17.079 15.9393L20.261 12.7574C20.4017 12.6167 20.5924 12.5377 20.7913 12.5377C20.9903 12.5377 21.181 12.6167 21.3217 12.7574C21.4623 12.898 21.5413 13.0888 21.5413 13.2877C21.5413 13.4866 21.4623 13.6774 21.3217 13.818L18.1397 17L21.3217 20.182C21.4623 20.3226 21.5413 20.5134 21.5413 20.7123C21.5413 20.9112 21.4623 21.102 21.3217 21.2426C21.181 21.3833 20.9903 21.4623 20.7913 21.4623C20.5924 21.4623 20.4017 21.3833 20.261 21.2426L17.079 18.0607L13.8971 21.2426C13.7564 21.3833 13.5656 21.4623 13.3667 21.4623C13.1678 21.4623 12.977 21.3833 12.8364 21.2426C12.6957 21.102 12.6167 20.9112 12.6167 20.7123C12.6167 20.5134 12.6957 20.3226 12.8364 20.182L16.0184 17L12.8364 13.818C12.6957 13.6774 12.6167 13.4866 12.6167 13.2877C12.6167 13.0888 12.6957 12.898 12.8364 12.7574Z" fill="black"/>
</g>
</svg>
