<svg width="17" height="17" viewBox="0 0 17 17" fill="none" xmlns="http://www.w3.org/2000/svg">
<g id="heroicons:users-16-solid">
<path id="Vector" d="M9.03193 4.78125C9.03193 5.48573 8.75208 6.16136 8.25393 6.6595C7.75579 7.15765 7.08016 7.4375 6.37568 7.4375C5.6712 7.4375 4.99557 7.15765 4.49743 6.6595C3.99928 6.16136 3.71943 5.48573 3.71943 4.78125C3.71943 4.07677 3.99928 3.40114 4.49743 2.903C4.99557 2.40485 5.6712 2.125 6.37568 2.125C7.08016 2.125 7.75579 2.40485 8.25393 2.903C8.75208 3.40114 9.03193 4.07677 9.03193 4.78125ZM11.5819 12.7564C11.6988 13.3322 11.2122 13.8125 10.6257 13.8125H2.12568C1.53812 13.8125 1.05255 13.3322 1.1673 12.7564C1.41173 11.5555 2.06367 10.476 3.01273 9.70063C3.96179 8.92528 5.14964 8.50175 6.37515 8.50175C7.60066 8.50175 8.78851 8.92528 9.73757 9.70063C10.6866 10.476 11.3386 11.5555 11.583 12.7564M14.8778 12.75H13.1884C13.1802 12.6466 13.166 12.5437 13.1459 12.4419C12.9433 11.4393 12.5197 10.4945 11.906 9.67619C12.6869 9.46124 13.5204 9.55146 14.2373 9.92854C14.9542 10.3056 15.5007 10.9413 15.7661 11.7066C15.9573 12.2612 15.4654 12.75 14.8778 12.75ZM12.7507 8.5C13.3143 8.5 13.8548 8.27612 14.2533 7.8776C14.6518 7.47909 14.8757 6.93859 14.8757 6.375C14.8757 5.81141 14.6518 5.27091 14.2533 4.8724C13.8548 4.47388 13.3143 4.25 12.7507 4.25C12.1871 4.25 11.6466 4.47388 11.2481 4.8724C10.8496 5.27091 10.6257 5.81141 10.6257 6.375C10.6257 6.93859 10.8496 7.47909 11.2481 7.8776C11.6466 8.27612 12.1871 8.5 12.7507 8.5Z" fill="black"/>
</g>
</svg>
