<svg width="17" height="17" viewBox="0 0 17 17" fill="none" xmlns="http://www.w3.org/2000/svg">
<g id="fluent:globe-12-filled">
<path id="Vector" d="M11.3183 9.20842H5.68275C5.76776 11.0869 6.18284 12.7175 6.76226 13.8763C7.45642 15.2647 8.152 15.5834 8.49909 15.5834C8.84617 15.5834 9.54317 15.2647 10.2373 13.8763C10.8168 12.7175 11.2333 11.0855 11.3183 9.20842ZM5.68134 7.79175C5.76634 5.91325 6.18142 4.28266 6.76084 3.12383C7.45642 1.7355 8.152 1.41675 8.49909 1.41675C8.84617 1.41675 9.54317 1.7355 10.2373 3.12383C10.8168 4.28266 11.2318 5.91466 11.3168 7.79175H5.68134ZM4.26326 7.79175H1.45117C1.57971 6.51781 2.05089 5.30248 2.81465 4.27481C3.57842 3.24715 4.60625 2.44552 5.789 1.95508C4.93334 3.37175 4.35959 5.44717 4.26326 7.79175ZM4.26467 9.20842H1.45117C1.57971 10.4824 2.05089 11.6977 2.81465 12.7254C3.57842 13.753 4.60625 14.5546 5.789 15.0451C4.93334 13.6284 4.36101 11.553 4.26467 9.20842ZM12.7363 9.20842H15.5484C15.42 10.4822 14.949 11.6974 14.1855 12.7251C13.422 13.7527 12.3945 14.5544 11.212 15.0451C12.0663 13.6284 12.6386 11.553 12.7349 9.20842M15.547 7.79175H12.7349C12.6386 5.44717 12.0663 3.37175 11.212 1.95508C12.3945 2.44573 13.422 3.24744 14.1855 4.27509C14.949 5.30274 15.4186 6.51797 15.547 7.79175Z" fill="white"/>
</g>
</svg>
