<svg width="31" height="31" viewBox="0 0 31 31" fill="none" xmlns="http://www.w3.org/2000/svg">
<circle cx="15.5" cy="15.5" r="15.5" fill="#D4C1B9"/>
<path d="M21.3571 18.5213L21.8568 15.6315C21.9816 14.9097 21.4266 14.2496 20.6949 14.2496H17.0249C16.6612 14.2496 16.3842 13.9231 16.4431 13.5637L16.9125 10.6988C16.9888 10.2334 16.967 9.75716 16.8486 9.30066C16.7505 8.92249 16.4587 8.61883 16.075 8.49556L15.9723 8.46258C15.7404 8.38808 15.4873 8.40541 15.2686 8.51077C15.028 8.62674 14.8519 8.83826 14.7867 9.08983L14.4497 10.3888C14.3425 10.8021 14.1863 11.2011 13.985 11.578C13.6908 12.1288 13.2359 12.5696 12.763 12.977L11.7439 13.8552C11.4566 14.1028 11.3057 14.4736 11.3384 14.8518L11.9137 21.5049C11.9664 22.1152 12.4766 22.5837 13.0885 22.5837H16.3813C18.8472 22.5837 20.9517 20.8655 21.3571 18.5213Z" fill="black"/>
<path fill-rule="evenodd" clip-rule="evenodd" d="M9.1021 13.7183C9.38632 13.706 9.62977 13.9198 9.65428 14.2033L10.3425 22.1625C10.3867 22.6737 9.98398 23.1144 9.46975 23.1144C8.98538 23.1144 8.59375 22.7214 8.59375 22.238V14.249C8.59375 13.9645 8.81787 13.7305 9.1021 13.7183Z" fill="black"/>
</svg>
