<svg width="31" height="31" viewBox="0 0 31 31" fill="none" xmlns="http://www.w3.org/2000/svg">
<circle cx="15.5" cy="15.5" r="15.5" fill="#D4C1B9"/>
<path fill-rule="evenodd" clip-rule="evenodd" d="M9.45302 9.45399C8.41602 10.4924 8.41602 12.1612 8.41602 15.5003C8.41602 18.8394 8.41602 20.509 9.45302 21.546C10.4914 22.5837 12.1603 22.5837 15.4993 22.5837C18.8384 22.5837 20.508 22.5837 21.545 21.546C22.5827 20.5097 22.5827 18.8394 22.5827 15.5003C22.5827 12.1612 22.5827 10.4917 21.545 9.45399C20.5087 8.41699 18.8384 8.41699 15.4993 8.41699C12.1603 8.41699 10.4907 8.41699 9.45302 9.45399ZM16.7389 14.0837C16.7389 14.3769 16.9769 14.6149 17.2702 14.6149H17.7589L16.3331 16.0408C16.3166 16.0573 16.2971 16.0704 16.2756 16.0793C16.254 16.0882 16.231 16.0928 16.2077 16.0928C16.1844 16.0928 16.1613 16.0882 16.1398 16.0793C16.1183 16.0704 16.0988 16.0573 16.0823 16.0408L14.9589 14.9174C14.7264 14.6851 14.4113 14.5546 14.0827 14.5546C13.7541 14.5546 13.4389 14.6851 13.2065 14.9174L11.5823 16.5416C11.5301 16.5902 11.4882 16.6489 11.4592 16.714C11.4301 16.7792 11.4145 16.8495 11.4133 16.9209C11.412 16.9922 11.4251 17.0631 11.4518 17.1292C11.4786 17.1954 11.5183 17.2554 11.5688 17.3059C11.6192 17.3563 11.6793 17.3961 11.7455 17.4228C11.8116 17.4495 11.8825 17.4627 11.9538 17.4614C12.0251 17.4602 12.0955 17.4445 12.1606 17.4155C12.2258 17.3865 12.2845 17.3446 12.3331 17.2924L13.9573 15.6682C13.9738 15.6517 13.9933 15.6386 14.0148 15.6297C14.0363 15.6208 14.0594 15.6162 14.0827 15.6162C14.106 15.6162 14.129 15.6208 14.1506 15.6297C14.1721 15.6386 14.1916 15.6517 14.2081 15.6682L15.3315 16.7916C15.5639 17.0239 15.8791 17.1544 16.2077 17.1544C16.5363 17.1544 16.8514 17.0239 17.0839 16.7916L18.5098 15.3665V15.8545C18.5098 15.9954 18.5657 16.1305 18.6654 16.2301C18.765 16.3298 18.9001 16.3857 19.041 16.3857C19.1819 16.3857 19.317 16.3298 19.4167 16.2301C19.5163 16.1305 19.5723 15.9954 19.5723 15.8545V14.0837C19.5723 13.9428 19.5163 13.8076 19.4167 13.708C19.317 13.6084 19.1819 13.5524 19.041 13.5524H17.2702C17.1293 13.5524 16.9942 13.6084 16.8945 13.708C16.7949 13.8076 16.7389 13.9428 16.7389 14.0837Z" fill="black"/>
</svg>
