<svg width="31" height="31" viewBox="0 0 31 31" fill="none" xmlns="http://www.w3.org/2000/svg">
<circle cx="15.5" cy="15.5" r="15.5" fill="#D4C1B9"/>
<g clip-path="url(#clip0_13224_11969)">
<path d="M23.7096 9.46182C23.5292 8.96575 23.2423 8.51523 22.869 8.14198C22.4958 7.76872 22.0452 7.4818 21.5492 7.30141C20.6213 7.00391 19.7783 7.00391 18.0642 7.00391H12.9217C11.2217 7.00391 10.3646 7.00391 9.45083 7.28724C8.95404 7.46839 8.50307 7.75639 8.12977 8.13092C7.75646 8.50544 7.46994 8.95735 7.29042 9.45474C7 10.3756 7 11.2256 7 12.9256V18.0752C7 19.7822 7 20.6252 7.28333 21.546C7.46373 22.0421 7.75065 22.4926 8.1239 22.8658C8.49716 23.2391 8.94767 23.526 9.44375 23.7064C10.3646 23.9968 11.2146 23.9968 12.9146 23.9968H18.0712C19.7783 23.9968 20.6283 23.9968 21.5421 23.7135C22.0402 23.5332 22.4926 23.2456 22.8671 22.871C23.2417 22.4965 23.5293 22.0441 23.7096 21.546C24 20.6252 24 19.7752 24 18.0752V12.9397C24 11.2327 24 10.3827 23.7096 9.46182ZM19.3392 12.7414L18.6804 13.4002C18.6162 13.4599 18.5322 13.4936 18.4445 13.495C18.3568 13.4963 18.2718 13.465 18.2058 13.4072C17.5679 12.8685 16.76 12.5724 15.925 12.5714C15.2379 12.5714 14.5508 12.7981 14.5508 13.4285C14.5508 14.066 15.2875 14.2785 16.1375 14.5972C17.625 15.0931 18.8575 15.7164 18.8575 17.1756C18.8575 18.7622 17.625 19.8531 15.6133 19.9735L15.4292 20.8235C15.4129 20.9016 15.3702 20.9717 15.3083 21.022C15.2463 21.0723 15.169 21.0998 15.0892 21.0997H13.8212L13.7575 21.0927C13.6667 21.0723 13.5876 21.017 13.5373 20.9389C13.4869 20.8607 13.4693 20.7658 13.4883 20.6747L13.6867 19.7752C12.9232 19.5838 12.2212 19.201 11.6467 18.6631V18.656C11.615 18.6244 11.5898 18.5869 11.5727 18.5455C11.5555 18.5042 11.5467 18.4599 11.5467 18.4152C11.5467 18.3704 11.5555 18.3261 11.5727 18.2848C11.5898 18.2434 11.615 18.2059 11.6467 18.1743L12.355 17.4872C12.4193 17.427 12.5042 17.3935 12.5923 17.3935C12.6804 17.3935 12.7653 17.427 12.8296 17.4872C13.4742 18.0964 14.3383 18.4364 15.2308 18.4222C16.1517 18.4222 16.7679 18.0327 16.7679 17.4164C16.7679 16.8002 16.1446 16.6372 14.9688 16.1981C13.7221 15.7518 12.5392 15.1214 12.5392 13.6481C12.5392 11.9339 13.9629 11.0981 15.6487 11.0202L15.8258 10.1489C15.8423 10.0715 15.8853 10.0022 15.9474 9.95308C16.0094 9.90394 16.0867 9.87801 16.1658 9.87974H17.4267L17.4975 9.88682C17.6817 9.92932 17.8021 10.1064 17.7596 10.2906L17.5683 11.261C18.2058 11.4735 18.8079 11.8064 19.325 12.2456L19.3392 12.2597C19.4738 12.4014 19.4738 12.6139 19.3392 12.7414Z" fill="black"/>
</g>
<defs>
<clipPath id="clip0_13224_11969">
<rect x="7" y="7" width="17" height="17" rx="8.5" fill="white"/>
</clipPath>
</defs>
</svg>
