<svg width="31" height="31" viewBox="0 0 31 31" fill="none" xmlns="http://www.w3.org/2000/svg">
<circle cx="15.5" cy="15.5" r="15.5" fill="#D4C1B9"/>
<path d="M18.3183 16.2087H12.6828C12.7678 18.0872 13.1828 19.7177 13.7623 20.8766C14.4564 22.2649 15.152 22.5837 15.4991 22.5837C15.8462 22.5837 16.5432 22.2649 17.2373 20.8766C17.8168 19.7177 18.2333 18.0857 18.3183 16.2087ZM12.6813 14.792C12.7663 12.9135 13.1814 11.2829 13.7608 10.1241C14.4564 8.73574 15.152 8.41699 15.4991 8.41699C15.8462 8.41699 16.5432 8.73574 17.2373 10.1241C17.8168 11.2829 18.2318 12.9149 18.3168 14.792H12.6813ZM11.2633 14.792H8.45117C8.57971 13.5181 9.05089 12.3027 9.81465 11.2751C10.5784 10.2474 11.6063 9.44577 12.789 8.95533C11.9333 10.372 11.3596 12.4474 11.2633 14.792ZM11.2647 16.2087H8.45117C8.57971 17.4826 9.05089 18.6979 9.81465 19.7256C10.5784 20.7533 11.6063 21.5549 12.789 22.0453C11.9333 20.6287 11.361 18.5532 11.2647 16.2087ZM19.7363 16.2087H22.5484C22.42 17.4824 21.949 18.6977 21.1855 19.7253C20.422 20.753 19.3945 21.5547 18.212 22.0453C19.0663 20.6287 19.6386 18.5532 19.7349 16.2087M22.547 14.792H19.7349C19.6386 12.4474 19.0663 10.372 18.212 8.95533C19.3945 9.44597 20.422 10.2477 21.1855 11.2753C21.949 12.303 22.4186 13.5182 22.547 14.792Z" fill="black"/>
</svg>
