<svg width="31" height="31" viewBox="0 0 31 31" fill="none" xmlns="http://www.w3.org/2000/svg">
<circle cx="15.5" cy="15.5" r="15.5" fill="#D4C1B9"/>
<path d="M13.4828 10.8313C14.3801 9.22175 14.8287 8.41699 15.4993 8.41699C16.17 8.41699 16.6186 9.22175 17.5159 10.8313L17.748 11.2477C18.0029 11.705 18.1304 11.9337 18.3292 12.0846C18.5279 12.2355 18.7755 12.2915 19.2706 12.4035L19.7213 12.5055C21.4636 12.8997 22.3348 13.0968 22.542 13.7633C22.7493 14.4298 22.1554 15.1243 20.9676 16.5132L20.6603 16.8725C20.3228 17.2672 20.154 17.4646 20.0781 17.7087C20.0022 17.9529 20.0277 18.2162 20.0787 18.7428L20.1252 19.2222C20.3048 21.0753 20.3946 22.0019 19.852 22.4138C19.3094 22.8257 18.4937 22.4502 16.8624 21.6991L16.4404 21.5048C15.9768 21.2913 15.745 21.1846 15.4993 21.1846C15.2537 21.1846 15.0219 21.2913 14.5583 21.5048L14.1363 21.6991C12.505 22.4502 11.6893 22.8257 11.1467 22.4138C10.6041 22.0019 10.6939 21.0753 10.8735 19.2222L10.92 18.7428C10.971 18.2162 10.9965 17.9529 10.9206 17.7087C10.8447 17.4646 10.6759 17.2672 10.3384 16.8725L10.0311 16.5132C8.84332 15.1243 8.24943 14.4298 8.45669 13.7633C8.66394 13.0968 9.53508 12.8997 11.2774 12.5055L11.7281 12.4035C12.2232 12.2915 12.4708 12.2355 12.6695 12.0846C12.8683 11.9337 12.9958 11.705 13.2507 11.2477L13.4828 10.8313Z" fill="black"/>
</svg>
