<svg width="31" height="31" viewBox="0 0 31 31" fill="none" xmlns="http://www.w3.org/2000/svg">
<circle cx="15.5" cy="15.5" r="15.5" fill="#D4C1B9"/>
<path d="M16.0319 11.7812C16.0319 12.4857 15.7521 13.1614 15.2539 13.6595C14.7558 14.1576 14.0802 14.4375 13.3757 14.4375C12.6712 14.4375 11.9956 14.1576 11.4974 13.6595C10.9993 13.1614 10.7194 12.4857 10.7194 11.7812C10.7194 11.0768 10.9993 10.4011 11.4974 9.903C11.9956 9.40485 12.6712 9.125 13.3757 9.125C14.0802 9.125 14.7558 9.40485 15.2539 9.903C15.7521 10.4011 16.0319 11.0768 16.0319 11.7812ZM18.5819 19.7564C18.6988 20.3322 18.2122 20.8125 17.6257 20.8125H9.12568C8.53812 20.8125 8.05255 20.3322 8.1673 19.7564C8.41173 18.5555 9.06367 17.476 10.0127 16.7006C10.9618 15.9253 12.1496 15.5018 13.3751 15.5018C14.6007 15.5018 15.7885 15.9253 16.7376 16.7006C17.6866 17.476 18.3386 18.5555 18.583 19.7564M21.8778 19.75H20.1884C20.1802 19.6466 20.166 19.5437 20.1459 19.4419C19.9433 18.4393 19.5197 17.4945 18.906 16.6762C19.6869 16.4612 20.5204 16.5515 21.2373 16.9285C21.9542 17.3056 22.5007 17.9413 22.7661 18.7066C22.9573 19.2612 22.4654 19.75 21.8778 19.75ZM19.7507 15.5C20.3143 15.5 20.8548 15.2761 21.2533 14.8776C21.6518 14.4791 21.8757 13.9386 21.8757 13.375C21.8757 12.8114 21.6518 12.2709 21.2533 11.8724C20.8548 11.4739 20.3143 11.25 19.7507 11.25C19.1871 11.25 18.6466 11.4739 18.2481 11.8724C17.8496 12.2709 17.6257 12.8114 17.6257 13.375C17.6257 13.9386 17.8496 14.4791 18.2481 14.8776C18.6466 15.2761 19.1871 15.5 19.7507 15.5Z" fill="black"/>
</svg>
