<svg width="24" height="25" viewBox="0 0 24 25" fill="none" xmlns="http://www.w3.org/2000/svg">
<g id="Group 1982248452">
<circle id="Ellipse 7182" cx="12" cy="12.5" r="12" fill="#F3F3F3"/>
<path id="Vector" d="M12.0007 10.4997C11.4702 10.4997 10.9615 10.7104 10.5864 11.0855C10.2114 11.4605 10.0007 11.9692 10.0007 12.4997C10.0007 13.0301 10.2114 13.5388 10.5864 13.9139C10.9615 14.289 11.4702 14.4997 12.0007 14.4997C12.5311 14.4997 13.0398 14.289 13.4149 13.9139C13.7899 13.5388 14.0007 13.0301 14.0007 12.4997C14.0007 11.9692 13.7899 11.4605 13.4149 11.0855C13.0398 10.7104 12.5311 10.4997 12.0007 10.4997ZM12.0007 9.16634C12.8847 9.16634 13.7326 9.51753 14.3577 10.1427C14.9828 10.7678 15.334 11.6156 15.334 12.4997C15.334 13.3837 14.9828 14.2316 14.3577 14.8567C13.7326 15.4818 12.8847 15.833 12.0007 15.833C11.1166 15.833 10.2687 15.4818 9.64363 14.8567C9.01851 14.2316 8.66732 13.3837 8.66732 12.4997C8.66732 11.6156 9.01851 10.7678 9.64363 10.1427C10.2687 9.51753 11.1166 9.16634 12.0007 9.16634ZM16.334 8.99967C16.334 9.22069 16.2462 9.43265 16.0899 9.58893C15.9336 9.74521 15.7217 9.83301 15.5007 9.83301C15.2796 9.83301 15.0677 9.74521 14.9114 9.58893C14.7551 9.43265 14.6673 9.22069 14.6673 8.99967C14.6673 8.77866 14.7551 8.5667 14.9114 8.41042C15.0677 8.25414 15.2796 8.16634 15.5007 8.16634C15.7217 8.16634 15.9336 8.25414 16.0899 8.41042C16.2462 8.5667 16.334 8.77866 16.334 8.99967ZM12.0007 7.16634C10.3513 7.16634 10.082 7.17101 9.31465 7.20501C8.79198 7.22967 8.44132 7.29967 8.11598 7.42634C7.84373 7.5263 7.59759 7.68652 7.39598 7.89501C7.18732 8.09661 7.02689 8.34273 6.92665 8.61501C6.79998 8.94167 6.72998 9.29167 6.70598 9.81367C6.67132 10.5497 6.66665 10.807 6.66665 12.4997C6.66665 14.1497 6.67132 14.4183 6.70532 15.1857C6.72998 15.7077 6.79998 16.059 6.92598 16.3837C7.03932 16.6737 7.17265 16.8823 7.39398 17.1037C7.61865 17.3277 7.82732 17.4617 8.11398 17.5723C8.44332 17.6997 8.79398 17.7703 9.31398 17.7943C10.05 17.829 10.3073 17.833 12 17.833C13.65 17.833 13.9187 17.8283 14.686 17.7943C15.2073 17.7697 15.558 17.6997 15.884 17.5737C16.156 17.4732 16.402 17.3131 16.604 17.105C16.8287 16.881 16.9627 16.6723 17.0733 16.385C17.2 16.057 17.2706 15.7063 17.2947 15.185C17.3293 14.4497 17.3333 14.1917 17.3333 12.4997C17.3333 10.8503 17.3287 10.581 17.2947 9.81367C17.27 9.29234 17.1993 8.94034 17.0733 8.61501C16.9728 8.34302 16.8127 8.097 16.6047 7.89501C16.4031 7.68624 16.157 7.52579 15.8847 7.42567C15.558 7.29901 15.2073 7.22901 14.686 7.20501C13.9507 7.17034 13.694 7.16634 12.0007 7.16634ZM12.0007 5.83301C13.812 5.83301 14.038 5.83967 14.7493 5.87301C15.4587 5.90634 15.9427 6.01767 16.3673 6.18301C16.8073 6.35234 17.178 6.58167 17.5487 6.95167C17.8876 7.28494 18.15 7.68807 18.3173 8.13301C18.482 8.55767 18.594 9.04167 18.6273 9.75167C18.6587 10.4623 18.6673 10.6883 18.6673 12.4997C18.6673 14.311 18.6607 14.537 18.6273 15.2477C18.594 15.9577 18.482 16.441 18.3173 16.8663C18.1504 17.3115 17.888 17.7147 17.5487 18.0477C17.2153 18.3866 16.8122 18.6488 16.3673 18.8163C15.9427 18.981 15.4587 19.093 14.7493 19.1263C14.038 19.1577 13.812 19.1663 12.0007 19.1663C10.1893 19.1663 9.96332 19.1597 9.25198 19.1263C8.54265 19.093 8.05932 18.981 7.63398 18.8163C7.18887 18.6493 6.78567 18.387 6.45265 18.0477C6.11361 17.7145 5.85129 17.3113 5.68398 16.8663C5.51865 16.4417 5.40732 15.9577 5.37398 15.2477C5.34198 14.537 5.33398 14.311 5.33398 12.4997C5.33398 10.6883 5.34065 10.4623 5.37398 9.75167C5.40732 9.04101 5.51865 8.55834 5.68398 8.13301C5.85081 7.68779 6.11319 7.28456 6.45265 6.95167C6.78576 6.6125 7.18894 6.35016 7.63398 6.18301C8.05865 6.01767 8.54198 5.90634 9.25198 5.87301C9.96332 5.84167 10.1893 5.83301 12.0007 5.83301Z" fill="#4A4A4A"/>
</g>
</svg>
