<svg width="17" height="17" viewBox="0 0 17 17" fill="none" xmlns="http://www.w3.org/2000/svg">
<g id="Bold / Like / Like">
<path id="Vector" d="M14.3571 11.521L14.8568 8.6312C14.9816 7.90942 14.4266 7.24925 13.6949 7.24925H10.0249C9.66121 7.24925 9.38423 6.92276 9.44311 6.56342L9.9125 3.69853C9.98876 3.2331 9.96698 2.75685 9.84856 2.30035C9.75046 1.92218 9.45869 1.61853 9.07498 1.49526L8.97229 1.46227C8.74039 1.38777 8.48728 1.40511 8.26864 1.51047C8.02798 1.62643 7.85192 1.83796 7.78666 2.08952L7.4497 3.38851C7.34249 3.80181 7.18632 4.20076 6.98496 4.57771C6.69075 5.12848 6.23587 5.56927 5.76304 5.97672L4.74393 6.85491C4.45659 7.10251 4.30569 7.47333 4.33839 7.85147L4.91367 14.5046C4.96644 15.1149 5.47665 15.5834 6.08849 15.5834H9.38127C11.8472 15.5834 13.9517 13.8652 14.3571 11.521Z" fill="white"/>
<path id="Vector_2" fill-rule="evenodd" clip-rule="evenodd" d="M2.1021 6.71858C2.38632 6.70632 2.62977 6.92014 2.65428 7.20357L3.34249 15.1628C3.3867 15.674 2.98398 16.1147 2.46975 16.1147C1.98538 16.1147 1.59375 15.7218 1.59375 15.2383V7.24934C1.59375 6.96484 1.81787 6.73085 2.1021 6.71858Z" fill="white"/>
</g>
</svg>
