<svg width="14" height="14" viewBox="0 0 14 14" fill="none" xmlns="http://www.w3.org/2000/svg">
<g id="vuesax/bold/search-normal">
<g id="search-normal">
<path id="Vector" d="M11.8102 6.70841C11.8102 9.52648 9.52575 11.811 6.70768 11.811C3.88962 11.811 1.60513 9.52648 1.60513 6.70841C1.60513 3.89035 3.88962 1.60586 6.70768 1.60586C9.52575 1.60586 11.8102 3.89035 11.8102 6.70841Z" stroke="#A4A2A2" stroke-width="0.87822"/>
<path id="Vector_2" d="M12.4245 12.8336C12.3195 12.8336 12.2145 12.7927 12.1387 12.7169L11.0537 11.6319C10.8962 11.4744 10.8962 11.2177 11.0537 11.0544C11.2112 10.8969 11.4678 10.8969 11.6312 11.0544L12.7162 12.1394C12.8737 12.2969 12.8737 12.5536 12.7162 12.7169C12.6345 12.7927 12.5295 12.8336 12.4245 12.8336Z" fill="#A4A2A2"/>
</g>
</g>
</svg>
