<svg width="24" height="25" viewBox="0 0 24 25" fill="none" xmlns="http://www.w3.org/2000/svg">
<g id="Group 1982248450">
<circle id="Ellipse 7184" cx="12" cy="12.5" r="12" fill="#F3F3F3"/>
<path id="Vector" d="M14.2605 11.2083L14.2739 11.0317C14.2806 10.9275 14.2879 10.8162 14.2946 10.6914C14.316 10.2957 14.3287 9.85882 14.3287 9.38298C14.3287 8.76461 14.1322 8.32849 13.7179 7.91931C13.2769 7.4839 12.743 7.2513 11.9873 7.2513C11.2275 7.2513 10.6789 7.48886 10.3101 7.88102C9.84503 8.37387 9.67062 8.74475 9.67062 9.37022C9.67062 9.73968 9.71072 10.7843 9.7341 11.2275C9.75296 11.5886 9.6411 11.9438 9.42138 12.2203C9.45747 12.2912 9.49155 12.3656 9.52295 12.4458C9.72341 12.9925 9.65526 13.54 9.42138 14.0562C9.15945 14.6363 8.9336 15.0441 8.47922 15.5837C8.34451 15.7443 8.20128 15.8965 8.05023 16.0397C8.1634 16.1549 8.25659 16.2902 8.32553 16.4397C8.67921 16.4066 9.03548 16.4245 9.38463 16.4929C9.92588 16.5964 10.2693 16.8006 10.8507 17.2453L10.8614 17.2531L11.0037 17.3609C11.418 17.6729 11.5897 17.7481 11.988 17.7481C12.3949 17.7481 12.596 17.6622 13.0056 17.3566L13.1439 17.2531C13.73 16.8049 14.0841 16.5957 14.6347 16.49C14.979 16.4292 15.3289 16.4116 15.6771 16.4376C15.7468 16.2871 15.8412 16.1509 15.9557 16.0355C15.8113 15.8973 15.6737 15.7512 15.5435 15.5979C15.1547 15.1385 14.8292 14.6231 14.5766 14.0669C14.334 13.5357 14.2625 12.9748 14.485 12.421C14.5118 12.3515 14.5418 12.2862 14.5732 12.2252C14.3478 11.9424 14.2355 11.5779 14.2605 11.2083ZM7.36733 11.136C7.64797 11.136 7.76892 11.3523 8.18254 11.3523C8.25733 11.3543 8.33158 11.3383 8.3997 11.3055C8.39436 11.1948 8.33422 9.89711 8.33422 9.37022C8.33422 8.17318 8.81466 7.46262 9.36459 6.87829C9.91452 6.29395 10.7718 5.83301 11.988 5.83301C13.2041 5.83301 14.0367 6.29608 14.6287 6.88112C15.2207 7.46617 15.6651 8.24977 15.6651 9.38298C15.6651 10.4857 15.5989 11.2225 15.5936 11.309C15.651 11.3403 15.7148 11.3561 15.7793 11.3551C16.2003 11.3551 16.2003 11.1353 16.6681 11.1353C17.1264 11.1353 17.3249 11.5395 17.3249 11.7189C17.3249 12.1593 16.7689 12.4046 16.4362 12.5174C16.1896 12.6004 15.8141 12.7238 15.7179 12.9677C15.6691 13.0911 15.6891 13.2514 15.7793 13.4485C15.782 13.4542 16.6213 15.493 18.4054 15.8071C18.5624 15.8319 18.6673 15.978 18.6673 16.1496C18.6673 16.3858 18.4201 16.5872 18.1815 16.7042C17.8855 16.846 17.4532 16.9666 16.8772 17.0623C16.8485 17.1176 16.7877 17.4062 16.7202 17.6913C16.63 18.0757 16.1856 17.9509 16.0586 17.9225C15.6636 17.8342 15.2568 17.8227 14.8579 17.8885C14.5351 17.9502 14.2478 18.1565 13.9251 18.4033C13.4486 18.7607 12.9462 19.1663 11.9873 19.1663C11.0284 19.1663 10.5547 18.7607 10.0782 18.4033C9.75615 18.1565 9.47417 17.9516 9.14609 17.8885C8.54537 17.7729 8.09701 17.914 7.94599 17.9282C7.79498 17.9431 7.38403 18.1019 7.28046 17.697C7.25106 17.5793 7.1535 17.124 7.1241 17.0623C6.55145 16.9666 6.11578 16.8403 5.8191 16.6985C5.57521 16.5815 5.33398 16.3844 5.33398 16.1468C5.33398 15.9794 5.43956 15.8348 5.59592 15.8043C7.36198 15.4618 8.11171 13.6733 8.21595 13.4428C8.30482 13.2471 8.32353 13.0883 8.27742 12.9613C8.1812 12.7181 7.80634 12.5975 7.55977 12.511C7.48961 12.4869 6.66772 12.2465 6.66772 11.7189C6.66772 11.5487 6.80403 11.3126 7.05594 11.2012C7.16419 11.1544 7.2965 11.136 7.36733 11.136Z" fill="#4A4A4A"/>
</g>
</svg>
