<svg width="17" height="16" viewBox="0 0 17 16" fill="none" xmlns="http://www.w3.org/2000/svg">
<g id="system-uicons:location">
<g id="Group">
<path id="Vector" fill-rule="evenodd" clip-rule="evenodd" d="M8.10854 14.1257L8.5893 13.584C9.13482 12.9593 9.62549 12.3665 10.0621 11.8027L10.4224 11.3273C11.9272 9.29983 12.68 7.69069 12.68 6.50136C12.68 3.96269 10.6335 1.90479 8.10854 1.90479C5.58359 1.90479 3.53711 3.96269 3.53711 6.50136C3.53711 7.69069 4.28987 9.29983 5.79463 11.3273L6.15501 11.8027C6.77782 12.6007 7.42943 13.3751 8.10854 14.1257Z" stroke="#515050" stroke-linecap="round" stroke-linejoin="round"/>
<path id="Vector_2" d="M8.10789 8.38093C9.15986 8.38093 10.0126 7.52814 10.0126 6.47617C10.0126 5.4242 9.15986 4.57141 8.10789 4.57141C7.05592 4.57141 6.20312 5.4242 6.20312 6.47617C6.20312 7.52814 7.05592 8.38093 8.10789 8.38093Z" stroke="#515050" stroke-linecap="round" stroke-linejoin="round"/>
</g>
</g>
</svg>
