<svg width="17" height="16" viewBox="0 0 17 16" fill="none" xmlns="http://www.w3.org/2000/svg">
<g id="tabler:clock">
<g id="Group">
<path id="Vector" d="M2.10938 8C2.10937 8.78793 2.26457 9.56815 2.5661 10.2961C2.86763 11.0241 3.30958 11.6855 3.86673 12.2426C4.42389 12.7998 5.08532 13.2417 5.81327 13.5433C6.54123 13.8448 7.32144 14 8.10938 14C8.89731 14 9.67752 13.8448 10.4055 13.5433C11.1334 13.2417 11.7949 12.7998 12.352 12.2426C12.9092 11.6855 13.3511 11.0241 13.6527 10.2961C13.9542 9.56815 14.1094 8.78793 14.1094 8C14.1094 6.4087 13.4772 4.88258 12.352 3.75736C11.2268 2.63214 9.70067 2 8.10938 2C6.51808 2 4.99195 2.63214 3.86673 3.75736C2.74152 4.88258 2.10938 6.4087 2.10938 8Z" stroke="#515050" stroke-linecap="round" stroke-linejoin="round"/>
<path id="Vector_2" d="M8.10938 4.66663V7.99996L10.1094 9.99996" stroke="#515050" stroke-linecap="round" stroke-linejoin="round"/>
</g>
</g>
</svg>
