<svg width="9" height="10" viewBox="0 0 9 10" fill="none" xmlns="http://www.w3.org/2000/svg">
<path id="Vector" d="M7.14031 1.56667C6.74795 1.13312 6.53172 0.576351 6.53189 0H4.75829V6.88889C4.74461 7.26168 4.582 7.61479 4.30471 7.87385C4.02742 8.13292 3.65708 8.27773 3.27168 8.27778C2.45663 8.27778 1.77934 7.63333 1.77934 6.83333C1.77934 5.87778 2.73214 5.16111 3.71365 5.45556V3.7C1.73342 3.44444 0 4.93333 0 6.83333C0 8.68333 1.58418 10 3.26594 10C5.06824 10 6.53189 8.58333 6.53189 6.83333V3.33889C7.25108 3.83881 8.11456 4.10703 9 4.10556V2.38889C9 2.38889 7.92092 2.43889 7.14031 1.56667Z" fill="#F0F0F0"/>
</svg>
