<svg width="24" height="25" viewBox="0 0 24 25" fill="none" xmlns="http://www.w3.org/2000/svg">
<g id="Group 1982248453">
<circle id="Ellipse 7185" cx="12" cy="12.5" r="12" fill="#F3F3F3"/>
<path id="Vector" d="M16.1864 7.9219C15.6633 7.34384 15.375 6.60148 15.3752 5.83301H13.0104V15.0182C12.9922 15.5152 12.7754 15.9861 12.4056 16.3315C12.0359 16.6769 11.5421 16.87 11.0283 16.87C9.94153 16.87 9.03846 16.0108 9.03846 14.9441C9.03846 13.67 10.3089 12.7145 11.6175 13.1071V10.7663C8.97724 10.4256 6.66602 12.4108 6.66602 14.9441C6.66602 17.4108 8.77826 19.1663 11.0206 19.1663C13.4237 19.1663 15.3752 17.2775 15.3752 14.9441V10.2849C16.3341 10.9514 17.4854 11.309 18.666 11.3071V9.01819C18.666 9.01819 17.2272 9.08486 16.1864 7.9219Z" fill="#4A4A4A"/>
</g>
</svg>
