<svg width="24" height="25" viewBox="0 0 24 25" fill="none" xmlns="http://www.w3.org/2000/svg">
<g id="Group 1982248449">
<circle id="Ellipse 7185" cx="12" cy="12.5" r="12" fill="#F3F3F3"/>
<path id="Vector" d="M10.8 14.2143L13.914 12.5L10.8 10.7857V14.2143ZM17.736 9.74C17.814 10.0086 17.868 10.3686 17.904 10.8257C17.946 11.2829 17.964 11.6771 17.964 12.02L18 12.5C18 13.7514 17.904 14.6714 17.736 15.26C17.586 15.7743 17.238 16.1057 16.698 16.2486C16.416 16.3229 15.9 16.3743 15.108 16.4086C14.328 16.4486 13.614 16.4657 12.954 16.4657L12 16.5C9.486 16.5 7.92 16.4086 7.302 16.2486C6.762 16.1057 6.414 15.7743 6.264 15.26C6.186 14.9914 6.132 14.6314 6.096 14.1743C6.054 13.7171 6.036 13.3229 6.036 12.98L6 12.5C6 11.2486 6.096 10.3286 6.264 9.74C6.414 9.22571 6.762 8.89429 7.302 8.75143C7.584 8.67714 8.1 8.62571 8.892 8.59143C9.672 8.55143 10.386 8.53429 11.046 8.53429L12 8.5C14.514 8.5 16.08 8.59143 16.698 8.75143C17.238 8.89429 17.586 9.22571 17.736 9.74Z" fill="#4A4A4A"/>
</g>
</svg>
