<svg width="2520" height="2907" viewBox="0 0 2520 2907" fill="none" xmlns="http://www.w3.org/2000/svg">
<path d="M1842.17 1551.71H160.333C106.167 1551.71 62 1507.56 62 1453.42C62 1399.27 106.167 1355.12 160.333 1355.12H1842.17C2216 1355.12 2520 1051.08 2520 677.561C2520 304.045 2216 0 1842.17 0H31V62.1417H1065.83C1405.33 62.1417 1681.67 338.198 1681.67 677.728C1681.67 1017.26 1405.5 1293.31 1065.83 1293.31H160.333C71.8333 1293.31 0 1365.29 0 1453.58C0 1541.88 72 1613.85 160.333 1613.85H1065.83C1405.33 1613.85 1681.67 1889.91 1681.67 2229.44V2907H2520V2229.44C2520 1855.76 2216 1551.88 1842.17 1551.88V1551.71Z" fill="black"/>
</svg>
